<svg width="784" height="667" viewBox="0 0 784 667" fill="none" xmlns="http://www.w3.org/2000/svg">
<g clip-path="url(#clip0)">
<path d="M563 325C807.268 581.649 1011.56 837.646 238 650C63.5662 607.687 -87 504.493 -87 325C-87 145.507 58.5075 0 238 0C417.493 0 439.254 194.982 563 325Z" fill="#A02222" fill-opacity="0.3"/>
<path d="M340 549H75C72.6139 548.997 70.3263 548.048 68.639 546.361C66.9518 544.674 66.0027 542.386 66 540V117C66.0028 114.614 66.9519 112.326 68.6391 110.639C70.3263 108.952 72.6139 108.003 75 108H340C342.386 108.003 344.674 108.952 346.361 110.639C348.048 112.326 348.997 114.614 349 117V152H355V173H349V180H355V201H349V540C348.997 542.386 348.048 544.674 346.361 546.361C344.674 548.048 342.386 548.997 340 549ZM75 110C73.1441 110.002 71.3649 110.74 70.0526 112.053C68.7402 113.365 68.0021 115.144 68 117V540C68.0022 541.856 68.7404 543.635 70.0526 544.947C71.3649 546.26 73.1441 546.998 75 547H340C341.856 546.998 343.635 546.26 344.947 544.947C346.26 543.635 346.998 541.856 347 540V199H353V182H347V171H353V154H347V117C346.998 115.144 346.26 113.365 344.947 112.053C343.635 110.74 341.856 110.002 340 110H75Z" fill="white"/>
<path d="M323.5 526.5H91.5V130.5H323.5V526.5ZM93.5 524.5H321.5V132.5H93.5V524.5Z" fill="white"/>
<path d="M232 119H184V121H232V119Z" fill="#A02222"/>
<path d="M254 225H160V235H254V225Z" fill="#D0CDE1"/>
<path d="M172.424 436.846C168.959 436.846 165.572 435.819 162.691 433.894C159.81 431.969 157.565 429.233 156.239 426.032C154.913 422.831 154.566 419.308 155.242 415.91C155.918 412.512 157.586 409.39 160.036 406.94C162.486 404.49 165.608 402.822 169.006 402.146C172.404 401.47 175.927 401.817 179.128 403.143C182.329 404.469 185.065 406.714 186.99 409.595C188.915 412.476 189.942 415.863 189.942 419.328C189.937 423.972 188.09 428.425 184.805 431.709C181.521 434.993 177.068 436.841 172.424 436.846V436.846ZM172.424 403.653C169.324 403.653 166.293 404.572 163.716 406.295C161.138 408.017 159.129 410.465 157.942 413.329C156.756 416.193 156.446 419.345 157.051 422.386C157.655 425.426 159.148 428.219 161.34 430.411C163.532 432.603 166.325 434.096 169.366 434.701C172.406 435.306 175.558 434.995 178.422 433.809C181.286 432.623 183.734 430.613 185.457 428.036C187.179 425.458 188.098 422.428 188.098 419.328C188.094 415.172 186.441 411.188 183.502 408.249C180.564 405.311 176.579 403.658 172.424 403.653V403.653Z" fill="#D0CDE1"/>
<path d="M172.67 425.87L163.744 416.943L166.352 414.336L172.178 420.161L188.434 397.059L191.451 399.183L172.67 425.87Z" fill="#33AE84"/>
<path d="M241.576 436.846C238.111 436.846 234.724 435.819 231.843 433.894C228.962 431.969 226.717 429.233 225.391 426.032C224.065 422.831 223.718 419.308 224.394 415.91C225.07 412.512 226.739 409.39 229.189 406.94C231.639 404.49 234.76 402.822 238.158 402.146C241.557 401.47 245.079 401.817 248.28 403.143C251.481 404.469 254.217 406.714 256.142 409.595C258.067 412.476 259.095 415.863 259.095 419.328C259.089 423.972 257.242 428.425 253.958 431.709C250.674 434.993 246.221 436.841 241.576 436.846V436.846ZM241.576 403.653C238.476 403.653 235.446 404.572 232.868 406.295C230.29 408.017 228.281 410.465 227.095 413.329C225.908 416.193 225.598 419.345 226.203 422.386C226.808 425.426 228.3 428.219 230.493 430.411C232.685 432.603 235.478 434.096 238.518 434.701C241.559 435.306 244.71 434.995 247.574 433.809C250.439 432.623 252.887 430.613 254.609 428.036C256.331 425.458 257.251 422.428 257.251 419.328C257.246 415.172 255.593 411.188 252.654 408.249C249.716 405.311 245.732 403.658 241.576 403.653V403.653Z" fill="#D0CDE1"/>
<path d="M249.874 413.654L247.263 411.05L241.576 416.755L235.889 411.05L233.278 413.654L238.972 419.366L233.355 425.001L235.966 427.605L241.576 421.978L247.186 427.605L249.797 425.001L244.18 419.366L249.874 413.654Z" fill="#FF6584"/>
<path d="M748 547H20.5532V549H748V547Z" fill="white"/>
<path d="M21 562C28.732 562 35 555.732 35 548C35 540.268 28.732 534 21 534C13.268 534 7 540.268 7 548C7 555.732 13.268 562 21 562Z" fill="#A02222"/>
<path d="M754 562C761.732 562 768 555.732 768 548C768 540.268 761.732 534 754 534C746.268 534 740 540.268 740 548C740 555.732 746.268 562 754 562Z" fill="#A02222"/>
<path d="M704.678 548.494L703.411 548.019C703.132 547.914 675.418 537.296 662.436 513.219C649.453 489.142 655.81 460.153 655.876 459.863L656.175 458.543L657.442 459.018C657.72 459.123 685.433 469.741 698.417 493.818C711.4 517.895 705.042 546.884 704.977 547.174L704.678 548.494ZM664.515 512.099C675.491 532.455 697.391 542.89 702.94 545.272C703.995 539.325 707.304 515.275 696.338 494.938C685.372 474.604 663.463 464.153 657.912 461.765C656.856 467.715 653.549 491.763 664.515 512.099Z" fill="#A02222"/>
<path d="M672.358 504.774C695.689 518.811 704.674 546.692 704.674 546.692C704.674 546.692 675.833 551.815 652.501 537.778C629.17 523.741 620.185 495.86 620.185 495.86C620.185 495.86 649.026 490.737 672.358 504.774Z" fill="#D0CDE1"/>
<path d="M374.5 188.5L370.5 214.5L352.5 284.5C352.5 284.5 329.5 314.5 349.5 320.5C369.5 326.5 366.5 285.5 366.5 285.5L391.5 235.5V190.5L374.5 188.5Z" fill="#A0616A"/>
<path d="M446.5 467.5L455.5 484.5L434.5 495.5L426.5 479.5L446.5 467.5Z" fill="#A0616A"/>
<g filter="url(#filter0_di)">
<path d="M426.5 486.5C426.5 486.5 442.5 484.5 445.5 486.5C448.5 488.5 450.5 477.5 455.5 479.5C460.5 481.5 474.5 498.5 471.5 500.5C468.5 502.5 455.5 526.5 455.5 526.5C455.5 526.5 441.5 560.5 429.5 554.5C417.5 548.5 426.5 517.5 426.5 517.5V486.5Z" fill="#434141"/>
</g>
<path d="M468.5 523.5L465.5 556.5L439.5 552.5L449.5 521.5L468.5 523.5Z" fill="#A0616A"/>
<g filter="url(#filter1_di)">
<path d="M439.5 543.5L445.5 546.5C445.5 546.5 454.5 531.5 461.5 539.5C468.5 547.5 470.5 546.5 470.5 546.5L483.5 575.5C483.5 575.5 501.5 604.5 477.5 604.5C453.5 604.5 450.5 593.5 450.5 593.5C450.5 593.5 437.5 584.5 437.5 579.5C437.5 574.5 439.5 543.5 439.5 543.5Z" fill="#434141"/>
</g>
<path d="M485.5 254.5C485.5 254.5 490.5 280.5 489.5 296.5C488.5 312.5 481.5 416.5 481.5 416.5L473.5 533.5L439.5 530.5L442.5 418.5L431.5 337.5L412.5 404.5L371.5 407.5C371.5 407.5 363.5 308.5 378.5 297.5C393.5 286.5 485.5 254.5 485.5 254.5Z" fill="#1E1E1E"/>
<path d="M406.5 394.5L412.5 404.5C412.5 404.5 435.5 427.5 438.5 439.5C441.5 451.5 455.5 470.5 455.5 470.5L425.5 486.5C425.5 486.5 366.5 417.5 371.5 407.5L406.5 394.5Z" fill="#1E1E1E"/>
<path d="M431.5 86.5C446.964 86.5 459.5 73.964 459.5 58.5C459.5 43.036 446.964 30.5 431.5 30.5C416.036 30.5 403.5 43.036 403.5 58.5C403.5 73.964 416.036 86.5 431.5 86.5Z" fill="#A0616A"/>
<path d="M441.5 77.5C441.5 77.5 440.5 98.5 455.5 102.5C470.5 106.5 431.5 126.5 431.5 126.5C431.5 126.5 401.5 127.5 403.5 112.5L410.5 106.5L409.5 68.5L441.5 77.5Z" fill="#A0616A"/>
<path d="M449 98C449 98 427.488 121.939 408.494 108.219C408.494 108.219 372.5 124.5 373.5 143.5C374.5 162.5 388.5 192.5 388.5 192.5L385.5 258.5C385.5 258.5 351.5 301.5 373.5 303.5C395.5 305.5 441.5 302.5 465.5 271.5C465.5 271.5 488.5 277.5 488.5 267.5V203.5L496.5 115.5L449 98Z" fill="#D0CDE1"/>
<path d="M384.5 131.5C384.5 131.5 375.54 132.793 373.52 141.647C371.5 150.5 370.5 196.5 370.5 196.5H394.5L384.5 131.5Z" fill="#D0CDE1"/>
<path d="M512.5 173.5L518.5 220.5L487.5 284.5L483.5 301.5L475 275L491.5 217.5L482.5 179.5L512.5 173.5Z" fill="#A0616A"/>
<path d="M459.185 34.086L461.032 29.9452L457.787 29.6538L458.617 25.7829L454.478 28.64C454.946 27.2854 455.063 25.8339 454.816 24.4219C454.57 23.0099 453.968 21.6838 453.069 20.5681C451.237 18.3544 448.847 16.6695 446.147 15.6874C440.865 13.6096 435.114 13.0273 429.523 14.0044C423.933 14.9814 418.719 17.4802 414.456 21.2262L414.157 20.0608C405.714 26.5508 400.19 36.1239 398.796 46.681C397.471 57.1164 402.484 67.742 409 76C408.335 71.6301 407.151 67.3451 409.252 63.4561C410.053 62.0404 410.939 60.6736 411.902 59.3629L417.217 51.8278C420.27 47.4981 423.901 42.7983 429.143 42.0303C430.598 41.8726 432.067 41.8783 433.521 42.0472C439.965 42.5538 446.869 43.8661 453.322 43.5873C458.584 43.36 460.177 39.4308 461.668 34.6266C460.855 34.3866 460.025 34.2059 459.185 34.086V34.086Z" fill="#2F2E41"/>
<path d="M486.5 117.5L496.5 115.5L518.5 177.5L478.5 186.5L486.5 117.5Z" fill="#D0CDE1"/>
<path d="M284 265.284H130V273.13H284V265.284Z" fill="#D0CDE1"/>
<path d="M284.276 288.822H130.276V296.668H284.276V288.822Z" fill="#D0CDE1"/>
<path d="M284.553 312.361H130.553V320.207H284.553V312.361Z" fill="#D0CDE1"/>
<path d="M284.829 335.899H130.829V343.745H284.829V335.899Z" fill="#D0CDE1"/>
<path d="M285.105 359.438H131.105V367.284H285.105V359.438Z" fill="#D0CDE1"/>
</g>
<defs>
<filter id="filter0_di" x="419.26" y="479.256" width="56.657" height="83.9542" filterUnits="userSpaceOnUse" color-interpolation-filters="sRGB">
<feFlood flood-opacity="0" result="BackgroundImageFix"/>
<feColorMatrix in="SourceAlpha" type="matrix" values="0 0 0 0 0 0 0 0 0 0 0 0 0 0 0 0 0 0 127 0"/>
<feOffset dy="4"/>
<feGaussianBlur stdDeviation="2"/>
<feColorMatrix type="matrix" values="0 0 0 0 0 0 0 0 0 0 0 0 0 0 0 0 0 0 0.25 0"/>
<feBlend mode="normal" in2="BackgroundImageFix" result="effect1_dropShadow"/>
<feBlend mode="normal" in="SourceGraphic" in2="effect1_dropShadow" result="shape"/>
<feColorMatrix in="SourceAlpha" type="matrix" values="0 0 0 0 0 0 0 0 0 0 0 0 0 0 0 0 0 0 127 0" result="hardAlpha"/>
<feOffset dy="4"/>
<feGaussianBlur stdDeviation="2"/>
<feComposite in2="hardAlpha" operator="arithmetic" k2="-1" k3="1"/>
<feColorMatrix type="matrix" values="0 0 0 0 0 0 0 0 0 0 0 0 0 0 0 0 0 0 0.25 0"/>
<feBlend mode="normal" in2="shape" result="effect2_innerShadow"/>
</filter>
<filter id="filter1_di" x="433.5" y="537.151" width="60.48" height="75.349" filterUnits="userSpaceOnUse" color-interpolation-filters="sRGB">
<feFlood flood-opacity="0" result="BackgroundImageFix"/>
<feColorMatrix in="SourceAlpha" type="matrix" values="0 0 0 0 0 0 0 0 0 0 0 0 0 0 0 0 0 0 127 0"/>
<feOffset dy="4"/>
<feGaussianBlur stdDeviation="2"/>
<feColorMatrix type="matrix" values="0 0 0 0 0 0 0 0 0 0 0 0 0 0 0 0 0 0 0.25 0"/>
<feBlend mode="normal" in2="BackgroundImageFix" result="effect1_dropShadow"/>
<feBlend mode="normal" in="SourceGraphic" in2="effect1_dropShadow" result="shape"/>
<feColorMatrix in="SourceAlpha" type="matrix" values="0 0 0 0 0 0 0 0 0 0 0 0 0 0 0 0 0 0 127 0" result="hardAlpha"/>
<feOffset dy="4"/>
<feGaussianBlur stdDeviation="2"/>
<feComposite in2="hardAlpha" operator="arithmetic" k2="-1" k3="1"/>
<feColorMatrix type="matrix" values="0 0 0 0 0 0 0 0 0 0 0 0 0 0 0 0 0 0 0.25 0"/>
<feBlend mode="normal" in2="shape" result="effect2_innerShadow"/>
</filter>
<clipPath id="clip0">
<rect x="-87" width="870.553" height="714.568" fill="white"/>
</clipPath>
</defs>
</svg>
