<svg width="674" height="622" viewBox="0 0 674 622" fill="none" xmlns="http://www.w3.org/2000/svg">
<style>


</style>
<path d="M542.219 50.7017C548.125 50.7017 552.913 45.4871 552.913 39.0545C552.913 32.622 548.125 27.4073 542.219 27.4073C536.313 27.4073 531.525 32.622 531.525 39.0545C531.525 45.4871 536.313 50.7017 542.219 50.7017Z" fill="#C90D0D"/>
<path d="M479.167 501.415C485.073 501.415 489.861 496.2 489.861 489.768C489.861 483.335 485.073 478.12 479.167 478.12C473.261 478.12 468.473 483.335 468.473 489.768C468.473 496.2 473.261 501.415 479.167 501.415Z" fill="#C90D0D"/>
<path d="M213.191 162.788C219.097 162.788 223.885 157.573 223.885 151.141C223.885 144.708 219.097 139.494 213.191 139.494C207.285 139.494 202.497 144.708 202.497 151.141C202.497 157.573 207.285 162.788 213.191 162.788Z" fill="#C90D0D"/>
<path d="M113.783 622C176.623 622 227.566 613.872 227.566 603.845C227.566 593.819 176.623 585.69 113.783 585.69C50.9423 585.69 0 593.819 0 603.845C0 613.872 50.9423 622 113.783 622Z" fill="#F1F1F1"/>
<path d="M173.889 472.796L202.454 463.049C200.873 450.11 197.264 437.563 191.785 425.955L163.22 435.701C169.923 446.72 173.622 459.581 173.889 472.796Z" fill="white"/>
<path d="M105.231 239.29C119.96 239.29 131.901 226.285 131.901 210.243C131.901 194.2 119.96 181.195 105.231 181.195C90.5016 181.195 78.561 194.2 78.561 210.243C78.561 226.285 90.5016 239.29 105.231 239.29Z" fill="black"/>
<path d="M76.4591 574.245L71.386 597.925H83.7064L88.7795 571.088L76.4591 574.245Z" fill="#9F616A"/>
<path d="M135.887 574.245V596.346L148.208 597.925V574.245H135.887Z" fill="#9F616A"/>
<path d="M72.8354 323.235C72.8354 323.235 74.2849 357.176 75.7344 359.544C77.1838 361.912 90.229 395.854 90.229 395.854L96.7516 373.753C96.7516 373.753 86.6053 355.598 88.0548 345.336C89.5043 335.075 88.5911 322.448 88.5911 322.448L72.8354 323.235Z" fill="#9F616A"/>
<path d="M114.145 241.143C125.352 241.143 134.438 231.248 134.438 219.042C134.438 206.836 125.352 196.94 114.145 196.94C102.938 196.94 93.8527 206.836 93.8527 219.042C93.8527 231.248 102.938 241.143 114.145 241.143Z" fill="#9F616A"/>
<path d="M97.4764 221.41C97.4764 221.41 98.2011 252.984 93.128 257.72C88.0549 262.456 122.117 258.509 122.117 258.509C122.117 258.509 114.87 236.407 120.668 231.671C126.466 226.935 97.4764 221.41 97.4764 221.41Z" fill="#9F616A"/>
<path d="M123.92 256.944C123.92 256.944 119.571 248.261 113.774 249.051C107.976 249.84 89.1327 251.419 88.408 252.997C87.6832 254.576 85.5091 260.101 84.0596 261.68C82.6101 263.259 71.7392 265.627 71.0144 275.099C70.2897 284.571 97.1048 342.193 97.1048 342.193C97.1048 342.193 93.4811 355.612 94.2058 358.769C94.9306 361.926 90.5822 371.398 91.3069 375.345C92.0316 379.292 80.4359 402.972 86.2338 433.756V483.485C86.2338 483.485 66.666 569.523 72.4639 575.838C78.2617 582.152 97.8295 578.206 101.453 575.838C105.077 573.47 120.296 454.279 120.296 454.279L127.543 414.023L128.268 502.429C128.268 502.429 126.819 576.627 131.892 578.995C136.965 581.363 156.533 582.152 157.982 577.416C159.113 573.723 164.651 475.442 167.035 432.362C167.86 417.492 166.786 402.569 163.844 388.02C160.827 373.12 156.448 355.613 151.46 348.508C142.038 335.089 136.24 292.464 136.24 292.464L148.561 267.995C148.561 267.995 141.313 260.101 136.965 260.101C132.617 260.101 123.92 256.944 123.92 256.944Z" fill="#1E1E1E"/>
<path d="M75.7344 269.56L71.9125 272.393C71.9125 272.393 69.2118 323.235 71.386 326.392C73.5602 329.549 88.6761 328.008 89.8149 325.227C90.9538 322.445 75.7344 269.56 75.7344 269.56Z" fill="#1E1E1E"/>
<path d="M135.162 316.92C135.162 316.92 135.887 350.072 140.235 359.544C144.584 369.017 160.528 408.483 160.528 408.483C160.528 408.483 159.602 451.922 167.675 441.254C175.747 430.585 170.674 405.326 170.674 405.326L156.904 346.915C156.904 346.915 149.657 320.867 150.382 312.973C151.106 305.08 135.162 316.92 135.162 316.92Z" fill="#9F616A"/>
<path d="M148.207 583.559C148.207 583.559 148.932 582.928 151.106 585.296C153.281 587.664 159.078 590.821 158.354 599.504C157.629 608.187 153.281 609.765 153.281 609.765V607.397H151.106V611.344C151.106 611.344 147.483 623.973 130.814 616.08C130.814 616.08 130.089 609.765 130.814 605.819C131.539 601.872 131.539 582.928 133.713 583.717C135.887 584.506 141.685 585.296 143.134 588.453C144.584 591.61 148.932 590.504 148.207 583.559Z" fill="#434141"/>
<path d="M73.5602 584.348C73.5602 584.348 72.8354 583.717 70.6613 586.085C68.4871 588.453 62.6892 591.61 63.4139 600.293C64.1387 608.976 68.4871 610.555 68.4871 610.555V608.187H70.6613V612.133C70.6613 612.133 74.2849 624.763 90.9537 616.869C90.9537 616.869 91.6785 610.555 90.9537 606.608C90.229 602.661 90.229 583.717 88.0548 584.506C85.8806 585.296 80.0828 586.085 78.6333 589.242C77.1838 592.4 72.8354 591.293 73.5602 584.348Z" fill="#434141"/>
<path d="M138.786 265.613L148.932 267.981C148.932 267.981 148.932 285.346 151.831 292.45C154.73 299.555 159.803 316.131 157.629 316.92C155.455 317.709 135.162 328.76 133.713 322.445C132.263 316.131 128.64 265.613 138.786 265.613Z" fill="#1E1E1E"/>
<path d="M76.3386 201.045C91.068 201.045 103.009 188.039 103.009 171.997C103.009 155.954 91.068 142.949 76.3386 142.949C61.6091 142.949 49.6686 155.954 49.6686 171.997C49.6686 188.039 61.6091 201.045 76.3386 201.045Z" fill="black"/>
<path d="M53.3343 196.05C56.7862 198.768 60.7855 200.545 64.9974 201.234C69.2093 201.923 73.5115 201.503 77.5439 200.009C81.5763 198.516 85.2218 195.993 88.1752 192.65C91.1286 189.308 93.3042 185.244 94.5198 180.798C94.0599 184.782 92.8465 188.619 90.9562 192.067C89.066 195.515 86.5399 198.498 83.5376 200.829C80.5353 203.16 77.1219 204.787 73.5129 205.609C69.9039 206.43 66.1777 206.428 62.5697 205.602C58.9616 204.775 55.5499 203.144 52.5502 200.809C49.5504 198.474 47.0276 195.488 45.1411 192.037C43.2546 188.587 42.0453 184.749 41.5897 180.764C41.1341 176.779 41.4419 172.734 42.4939 168.886C41.8965 174.056 42.5877 179.307 44.495 184.086C46.4024 188.866 49.4556 192.998 53.3343 196.05Z" fill="black"/>
<path d="M98.119 236.386C108.921 236.386 117.677 226.849 117.677 215.084C117.677 203.32 108.921 193.783 98.119 193.783C87.3175 193.783 78.561 203.32 78.561 215.084C78.561 226.849 87.3175 236.386 98.119 236.386Z" fill="black"/>
<path d="M114.566 221.862C124.14 221.862 131.901 215.251 131.901 207.096C131.901 198.941 124.14 192.33 114.566 192.33C104.991 192.33 97.2301 198.941 97.2301 207.096C97.2301 215.251 104.991 221.862 114.566 221.862Z" fill="black"/>
<path d="M119.189 228.566C121.006 228.566 122.48 225.728 122.48 222.227C122.48 218.725 121.006 215.887 119.189 215.887C117.372 215.887 115.899 218.725 115.899 222.227C115.899 225.728 117.372 228.566 119.189 228.566Z" fill="#A0616A"/>
<path d="M665.073 139.226L294.418 18L205 342.32L575.655 463.545L665.073 139.226Z" fill="white" stroke="#1E1E1E" stroke-width="3"/>
<path d="M442.93 112.002L530.725 150.652" stroke="#272727" stroke-width="2" stroke-miterlimit="10"/>
<path d="M445.162 119.948L446.476 119.28L443.446 112.23L450.123 109.453L449.604 107.978L441.472 111.362L445.162 119.948Z" fill="#272727"/>
<path d="M524.05 154.677L523.531 153.202L530.208 150.426L527.178 143.376L528.493 142.707L532.182 151.295L524.05 154.677Z" fill="#272727"/>
<path d="M486.828 140.01C491.23 140.01 494.8 136.122 494.8 131.327C494.8 126.531 491.23 122.644 486.828 122.644C482.425 122.644 478.855 126.531 478.855 131.327C478.855 136.122 482.425 140.01 486.828 140.01Z" fill="#272727"/>
<path d="M436.24 379.949L517.122 326.313" stroke="#272727" stroke-width="2" stroke-miterlimit="10"/>
<path d="M443.425 382.744L443.717 381.196L436.716 379.635L438.657 372.143L437.26 371.715L434.898 380.841L443.425 382.744Z" fill="#272727"/>
<path d="M516.103 334.548L514.706 334.121L516.648 326.63L509.646 325.068L509.938 323.521L518.466 325.424L516.103 334.548Z" fill="#272727"/>
<path d="M476.681 361.814C481.084 361.814 484.653 357.927 484.653 353.131C484.653 348.336 481.084 344.449 476.681 344.449C472.278 344.449 468.709 348.336 468.709 353.131C468.709 357.927 472.278 361.814 476.681 361.814Z" fill="#272727"/>
<path d="M334.62 210L334.649 313.136" stroke="#272727" stroke-width="2" stroke-miterlimit="10"/>
<path d="M328.693 215.233L329.755 216.309L334.619 210.605L339.487 216.306L340.548 215.229L334.618 208.287L328.693 215.233Z" fill="#272727"/>
<path d="M328.719 307.907L329.78 306.83L334.647 312.531L339.512 306.827L340.574 307.903L334.648 314.848L328.719 307.907Z" fill="#272727"/>
<path d="M334.634 270.251C339.037 270.251 342.606 266.363 342.606 261.568C342.606 256.773 339.037 252.885 334.634 252.885C330.231 252.885 326.662 256.773 326.662 261.568C326.662 266.363 330.231 270.251 334.634 270.251Z" fill="#272727"/>
<path d="M398.901 0H267V178.391H398.901V0Z" fill="#6B6B6B"/>
<path d="M325.13 66.4107H295.196C293.153 53.5488 293.153 40.4003 295.196 27.5383H325.13C321.757 40.2355 321.757 53.7135 325.13 66.4107Z" fill="#980000"/>
<path d="M341.623 86.1267H371.557C373.6 73.2647 373.6 60.1162 371.557 47.2543H341.623C344.995 59.9514 344.995 73.4295 341.623 86.1267V86.1267Z" fill="white"/>
<path d="M313.359 150.853H343.293C345.335 137.991 345.335 124.842 343.293 111.98H313.359C316.731 124.677 316.731 138.155 313.359 150.853Z" fill="white"/>
<path d="M674 169.708H542.099V348.099H674V169.708Z" fill="#980000"/>
<path d="M655.157 207.596H560.942V212.332H655.157V207.596Z" fill="white"/>
<path d="M655.157 224.173H560.942V228.909H655.157V224.173Z" fill="white"/>
<path d="M655.157 240.749H560.942V245.485H655.157V240.749Z" fill="white"/>
<path d="M655.157 257.325H560.942V262.061H655.157V257.325Z" fill="white"/>
<path d="M655.157 273.901H560.942V278.637H655.157V273.901Z" fill="white"/>
<path d="M632.69 291.266H583.409V310.211H632.69V291.266Z" fill="white"/>
<path d="M410.923 352.835H279.021V531.226H410.923V352.835Z" fill="#434346"/>
<path d="M392.295 452.139H298.079V456.875H392.295V452.139Z" fill="white"/>
<path d="M392.295 468.715H298.079V473.451H392.295V468.715Z" fill="white"/>
<path d="M392.295 485.291H298.079V490.027H392.295V485.291Z" fill="white"/>
<path d="M392.295 501.867H298.079V506.603H392.295V501.867Z" fill="white"/>
<path opacity="0.3" d="M326.942 416.33H297.008C294.965 403.468 294.965 390.32 297.008 377.458H326.942C323.569 390.155 323.569 403.633 326.942 416.33Z" fill="white"/>
<path opacity="0.3" d="M394.469 381.098H339.389V385.045H394.469V381.098Z" fill="white"/>
<path opacity="0.3" d="M394.469 395.306H339.389V399.253H394.469V395.306Z" fill="white"/>
<path opacity="0.3" d="M394.469 409.514H339.389V413.461H394.469V409.514Z" fill="white"/>
<path opacity="0.3" d="M394.469 423.723H339.389V427.669H394.469V423.723Z" fill="white"/>
</svg>
