<svg width="725" height="692" viewBox="0 0 725 692" fill="none" xmlns="http://www.w3.org/2000/svg">
<g clip-path="url(#clip0)">
<path d="M157.987 692C210.384 692 252.861 685.493 252.861 677.467C252.861 669.44 210.384 662.934 157.987 662.934C105.59 662.934 63.1133 669.44 63.1133 677.467C63.1133 685.493 105.59 692 157.987 692Z" fill="#E6E6E6"/>
<path d="M724.805 612.6L343 537.592V187.9L724.805 0V612.6Z" fill="#E6E6E6"/>
<path d="M724.073 36.7214L342.268 209.042V188.774L724.073 1.18884V36.7214Z" fill="#980000"/>
<path d="M359.876 191.402C359.876 196.066 358.21 200.602 356.169 201.528C354.144 202.447 352.514 199.459 352.514 194.861C352.514 190.262 354.144 185.743 356.169 184.759C358.21 183.767 359.876 186.738 359.876 191.402Z" fill="#E6E6E6"/>
<path d="M374.363 185.617C374.363 190.152 372.697 194.58 370.656 195.501C368.631 196.415 367 193.525 367 189.053C367 184.58 368.631 180.169 370.656 179.193C372.697 178.21 374.363 181.083 374.363 185.617Z" fill="#E6E6E6"/>
<path d="M389.531 177.432C389.531 181.967 387.865 186.394 385.824 187.316C383.798 188.23 382.167 185.34 382.167 180.868C382.167 176.395 383.798 171.984 385.824 171.008C387.865 170.024 389.531 172.898 389.531 177.432Z" fill="#E6E6E6"/>
<path opacity="0.2" d="M625.879 272.7L390.494 323.479V258.718L625.879 180.247V272.7Z" fill="black"/>
<path d="M621.208 268.296L385.823 319.075V254.314L621.208 175.842V268.296Z" fill="white"/>
<path opacity="0.2" d="M429.401 278.892C429.401 289.326 425.216 298.794 420.134 300.021C415.14 301.226 411.153 293.991 411.153 283.879C411.153 273.768 415.14 264.354 420.134 262.829C425.216 261.278 429.401 268.459 429.401 278.892Z" fill="black"/>
<path d="M426.599 276.25C426.599 286.683 422.414 296.152 417.332 297.378C412.337 298.583 408.351 291.348 408.351 281.237C408.351 271.125 412.337 261.711 417.332 260.187C422.414 258.636 426.599 265.816 426.599 276.25Z" fill="#980000"/>
<path d="M564.679 239.246L451.62 270.03V259.134L564.679 226.351V239.246Z" fill="#E6E6E6"/>
<path d="M538.731 270.412L472.007 286.293V275.037L538.731 257.976V270.412Z" fill="#E6E6E6"/>
<path opacity="0.2" d="M625.886 504.274L390.501 485.669V355.717L625.886 318.662V504.274Z" fill="black"/>
<path d="M620.281 499.871L384.897 481.264V351.313L620.281 314.257V499.871Z" fill="white"/>
<path opacity="0.2" d="M423.833 388.029L412.817 388.997V377.642L423.833 376.456V388.029Z" fill="black"/>
<path d="M421.966 386.268L410.949 387.236V375.88L421.966 374.695V386.268Z" fill="#980000"/>
<path d="M564.679 373.459L433.086 385.073V374.505L564.679 360.565V373.459Z" fill="#E6E6E6"/>
<path d="M564.679 415.565L433.086 419.581V409.013L564.679 402.67V415.565Z" fill="#E6E6E6"/>
<path d="M564.679 458.736L433.086 454.963V444.395L564.679 445.841V458.736Z" fill="#E6E6E6"/>
<path d="M147.301 319.002H122.117V307.37H143.189L147.815 309.794L147.301 319.002Z" fill="#575A89"/>
<path d="M103.613 639.364L104.641 656.812L120.061 653.904L117.491 636.456L103.613 639.364Z" fill="#FFB9B9"/>
<path d="M176.597 630.156C176.597 630.156 177.111 644.696 175.569 648.573C174.027 652.45 179.681 654.389 179.681 654.389H192.016L199.212 655.358V648.088C199.212 648.088 190.989 635.972 190.989 629.186C190.989 622.401 176.597 630.156 176.597 630.156Z" fill="#FFB9B9"/>
<path d="M106.183 653.904C106.183 653.904 116.463 649.325 120.06 652.099C123.658 654.874 137.021 678.622 131.882 680.076C131.882 680.076 128.284 685.892 115.949 682.015C103.613 678.137 103.613 673.775 103.613 673.775C103.613 673.775 100.015 670.867 100.015 669.898C100.015 668.929 101.557 660.205 101.557 660.205C101.557 660.205 102.698 652.906 104.44 653.405L106.183 653.904Z" fill="#434141"/>
<path d="M177.625 646.634C177.625 646.634 176.083 645.18 175.055 646.634C174.027 648.088 168.374 666.505 173.514 667.475C178.653 668.444 186.363 671.837 187.391 670.867C188.25 669.838 188.943 668.695 189.447 667.475C189.447 667.475 197.67 670.867 200.24 673.775C202.81 676.683 233.648 682.984 232.62 673.775C231.592 664.567 216.173 656.812 216.173 656.812L199.212 646.15C199.212 646.15 192.53 646.634 190.989 649.542C189.447 652.45 178.653 651.965 177.625 646.634Z" fill="#434141"/>
<path opacity="0.1" d="M35.1258 450.83C35.1258 450.83 29.4721 457.616 30.5 458.1C31.5279 458.585 54.1427 463.432 66.4781 460.524C78.8134 457.616 104.512 458.1 106.054 454.708C107.596 451.315 126.613 409.149 126.613 409.149L120.445 377.161L113.764 368.922L98.3443 356.321L67.506 410.603L35.1258 450.83Z" fill="black"/>
<path d="M40.7507 445.509C40.7507 445.509 35.097 452.295 36.1249 452.779C37.1529 453.264 59.7676 458.111 72.103 455.203C84.4383 452.295 110.137 452.779 111.679 449.387C113.221 445.994 132.238 403.828 132.238 403.828L126.07 371.841L119.388 363.601L103.969 351L73.1309 405.282L40.7507 445.509Z" fill="black"/>
<path d="M92.3059 447.438C92.3059 447.438 85.1103 471.671 92.3059 505.113C99.5015 538.554 92.8199 545.824 94.3618 547.278C95.9037 548.732 96.4177 548.248 96.4177 549.702C96.4177 551.156 97.9596 557.941 96.4177 560.364C94.8757 562.788 94.8757 639.849 99.5015 641.788C104.127 643.726 117.491 648.573 120.06 641.788C122.63 635.002 120.574 586.051 121.602 583.628C122.63 581.205 122.63 575.389 122.63 573.935C122.63 572.481 125.714 556.002 126.228 551.64C126.742 547.278 128.284 538.554 128.284 538.554C128.284 538.554 127.256 504.143 130.34 493.965C133.424 483.787 134.452 482.818 134.452 482.818L159.122 543.401C159.122 543.401 157.066 549.702 159.122 551.64C161.178 553.579 158.608 553.094 160.664 556.487C162.72 559.88 164.776 560.849 164.776 562.788C164.776 564.726 162.72 564.726 163.748 566.18C164.776 567.634 166.318 572.965 166.318 572.965L163.748 578.781C163.748 578.781 165.29 590.898 167.346 598.168C169.402 605.438 169.402 635.002 171.972 635.487C174.541 635.972 194.586 641.303 194.586 630.156C194.586 619.008 193.044 570.542 193.044 570.542C193.044 570.542 189.961 563.272 189.961 561.334C189.961 559.395 189.447 558.426 190.475 557.456C191.503 556.487 192.53 554.548 190.989 553.094C189.447 551.64 189.961 549.702 189.961 547.763C189.872 545.154 189.528 542.558 188.933 540.008C188.419 538.07 178.653 477.487 178.653 477.487C178.653 477.487 180.709 470.217 178.653 469.732C176.597 469.248 176.597 465.37 176.597 463.432C176.597 461.493 181.737 437.26 175.569 437.26C169.402 437.26 92.3059 447.438 92.3059 447.438Z" fill="#1E1E1E"/>
<path d="M24.4616 418.358L17.2659 421.751C17.2659 421.751 -8.43268 434.836 2.87471 442.106C14.1821 449.376 25.4895 431.928 25.4895 431.928L36.2829 424.174L24.4616 418.358Z" fill="#FFB9B9"/>
<path d="M124.686 285.56C124.686 285.56 122.63 307.855 111.837 312.701C101.043 317.548 108.239 353.898 108.239 353.898L123.144 367.468L149.357 360.198L152.441 343.72L155.01 326.757L148.843 318.033C148.843 318.033 141.133 316.094 144.217 296.707C147.301 277.321 124.686 285.56 124.686 285.56Z" fill="#FFB9B9"/>
<path d="M109.475 320.847C109.475 320.847 121.296 357.681 129.52 357.681C137.743 357.681 142.369 348.957 143.397 338.295C144.425 327.632 151.106 316 151.106 316L167.04 329.571C167.04 329.571 179.889 436.681 178.861 439.589C177.833 442.497 137.743 445.89 121.81 450.252C105.877 454.614 89.9437 451.221 89.9437 448.798C89.9437 446.64 98.0975 427.95 91.893 414.301C89.6269 409.438 88.0944 404.301 87.3403 399.037C86.38 391.851 85.4882 383.156 86.346 380.46C87.8879 375.614 96.1114 324.239 96.1114 324.239L109.475 320.847Z" fill="#980000"/>
<path d="M118.395 307.05C118.395 307.05 109.179 311.699 105.067 313.638C100.956 315.576 75.7709 321.392 75.2569 324.3C74.7429 327.208 78.8547 367.92 76.7988 372.282C74.7429 376.644 54.1841 415.417 54.1841 415.417L53.1561 423.656C53.1561 423.656 19.234 461.945 23.3457 466.307C27.4575 470.669 42.8767 452.736 42.8767 452.736C42.8767 452.736 77.3128 400.877 78.3407 398.938C79.3687 397 100.442 361.135 103.525 360.165C106.609 359.196 113.805 318.484 114.833 316.546C115.861 314.607 119.902 306.279 118.395 307.05Z" fill="#1E1E1E"/>
<path d="M77.4007 323.849H74.3168C74.3168 323.849 63.0094 364.56 59.9256 369.891C56.8418 375.223 56.3278 383.947 55.8139 385.401C55.2999 386.855 53.244 386.37 52.73 389.763C52.216 393.155 47.0763 397.517 42.9645 399.456C38.8527 401.395 20.3498 417.873 20.8637 418.358C21.3777 418.842 27.0314 435.806 30.6292 435.806C34.227 435.806 48.6182 419.327 50.1601 419.327C51.702 419.327 58.3837 413.511 59.4116 413.027C60.4396 412.542 86.6522 366.984 85.6242 355.836C84.5963 344.689 77.4007 323.849 77.4007 323.849Z" fill="#1E1E1E"/>
<path d="M205.644 449.412L211.974 454.093C211.974 454.093 234.379 471.76 221.758 476.751C209.138 481.742 201.759 462.514 201.759 462.514L192.828 452.881L205.644 449.412Z" fill="#FFB9B9"/>
<path d="M143.589 307.658C143.589 307.658 150.385 310.763 153.469 313.186C156.552 315.609 180.195 321.91 180.195 323.849C180.195 325.787 177.625 355.836 177.625 355.836L181.223 409.149C181.223 409.149 186.363 469.248 187.391 470.702C188.419 472.155 189.961 479.91 187.391 479.91C184.821 479.91 171.972 466.34 172.486 459.554C173 452.769 176.597 437.26 173 433.382C169.402 429.505 152.441 364.56 152.441 360.683C152.441 356.806 145.245 318.033 145.759 317.063C146.273 316.094 143.589 307.658 143.589 307.658Z" fill="#1E1E1E"/>
<path d="M172.486 323.364L180.195 323.849L199.212 397.033C199.212 397.033 200.754 406.241 201.268 407.211C201.782 408.18 209.492 450.346 206.408 451.8C203.324 453.254 193.044 458.585 192.53 455.192C192.016 451.8 186.877 432.898 181.737 428.536C176.597 424.174 171.458 349.051 171.458 349.051L172.486 323.364Z" fill="#1E1E1E"/>
<path d="M141.647 298.646C153.285 298.646 162.72 289.749 162.72 278.775C162.72 267.8 153.285 258.904 141.647 258.904C130.009 258.904 120.574 267.8 120.574 278.775C120.574 289.749 130.009 298.646 141.647 298.646Z" fill="#FFB9B9"/>
<path d="M126.941 280.226C128.282 279.577 130.046 280.188 131.284 281.602C131.939 278.647 133.316 275.877 135.306 273.512C137.296 271.148 139.844 269.254 142.747 267.981C145.649 266.709 148.827 266.093 152.027 266.182C155.227 266.272 158.36 267.064 161.178 268.497V266.477C161.178 262.026 159.303 257.758 155.966 254.61C152.628 251.463 148.101 249.695 143.381 249.695H139.104C134.713 249.695 130.365 250.511 126.309 252.095C122.252 253.679 118.567 256.002 115.462 258.929C112.357 261.857 109.894 265.333 108.214 269.158C106.534 272.983 105.669 277.083 105.669 281.223V286.85C105.669 292.072 107.202 297.192 110.1 301.643C112.997 306.093 117.146 309.699 122.085 312.061L141.33 302.454C138.542 300.973 136.16 298.899 134.371 296.397C132.583 293.896 131.438 291.035 131.027 288.043C129.399 288.714 127.218 287.628 126.083 285.546C124.916 283.403 125.3 281.021 126.941 280.226Z" fill="black"/>
</g>
<defs>
<clipPath id="clip0">
<rect width="725" height="692" fill="white"/>
</clipPath>
</defs>
</svg>
