<svg width="935" height="652" viewBox="0 0 935 652" fill="none" xmlns="http://www.w3.org/2000/svg">
<style>
#effect1{
    webkit-animation: slide-left 5s ease-in-out infinite alternate both;
	        animation: slide-left 5s ease-in-out infinite alternate both;
}
@-webkit-keyframes slide-left {
  0% {
    -webkit-transform: translateX(0);
            transform: translateX(0);
  }
  100% {
    -webkit-transform: translateX(-100px);
            transform: translateX(-100px);
  }
}
@keyframes slide-left {
  0% {
    -webkit-transform: translateX(0);
            transform: translateX(0);
  }
  100% {
    -webkit-transform: translateX(-100px);
            transform: translateX(-100px);
  }
}

#effect2{
	-webkit-animation: slide-left 5s linear infinite alternate-reverse ;
	        animation: slide-left 5s linear infinite alternate-reverse ;
}

@-webkit-keyframes slide-left {
  0% {
    -webkit-transform: translateX(0);
            transform: translateX(0);
  }
  100% {
    -webkit-transform: translateX(-100px);
            transform: translateX(-100px);
  }
}
@keyframes slide-left {
  0% {
    -webkit-transform: translateX(0);
            transform: translateX(0);
  }
  100% {
    -webkit-transform: translateX(-100px);
            transform: translateX(-100px);
  }
}
</style>

<path id="effect1" opacity="0.1" d="M556.925 167.909C503.972 166.2 453.534 150.272 405.376 132.846C357.218 115.421 309.506 96.1225 257.825 86.8887C224.58 80.9507 186.561 80.1132 159.777 96.7149C134.017 112.663 125.669 140.276 121.195 165.866C117.825 185.117 115.844 205.362 125.07 223.407C131.48 235.923 142.862 246.444 150.735 258.428C178.11 300.137 158.776 351.576 129.083 392.298C115.194 411.405 99.0169 429.628 88.2787 449.961C77.5404 470.294 72.5696 493.604 81.9629 514.346C91.283 534.91 113.476 550.355 137.518 561.216C186.356 583.279 243.907 589.598 300.025 593.173C424.25 601.086 549.14 597.661 673.694 594.229C719.791 592.955 766.084 591.668 811.435 585.029C836.61 581.345 862.605 575.495 880.879 561.366C904.088 543.429 909.841 513.059 894.286 490.546C868.204 452.828 796.077 443.458 777.846 402.975C767.809 380.694 778.116 355.867 792.7 335.206C823.986 290.869 876.428 251.973 879.191 201.303C881.091 166.499 855.879 131.641 816.903 115.176C776.04 97.9134 719.389 100.086 689.242 128.659C658.226 158.103 603.68 169.421 556.925 167.909Z" fill="#A02222" fill-opacity="0.8"/>
<path id="effect2" opacity="0.1" d="M549.167 162.641C495.573 160.855 444.524 144.216 395.783 126.012C347.042 107.809 298.752 87.6483 246.446 78.0022C212.798 71.799 174.318 70.9241 147.21 88.2672C121.138 104.927 112.689 133.773 108.162 160.507C104.751 180.617 102.746 201.766 112.083 220.617C118.571 233.692 130.091 244.683 138.059 257.203C165.766 300.774 146.197 354.511 116.144 397.051C102.087 417.012 85.7148 436.048 74.8465 457.289C63.9782 478.531 58.9473 502.881 68.4542 524.549C77.8872 546.033 100.349 562.167 124.682 573.513C174.111 596.561 232.359 603.163 289.157 606.897C414.885 615.163 541.288 611.585 667.349 608C714.004 606.67 760.858 605.325 806.758 598.389C832.238 594.541 858.547 588.43 877.043 573.669C900.533 554.932 906.355 523.205 890.612 499.687C864.214 460.284 791.214 450.496 772.762 408.205C762.604 384.929 773.036 358.993 787.796 337.41C819.461 291.093 872.537 250.459 875.334 197.526C877.257 161.168 851.74 124.753 812.292 107.552C770.935 89.5192 713.597 91.7885 683.086 121.637C651.694 152.397 596.487 164.22 549.167 162.641Z" fill="#A02222" fill-opacity="0.8"/>
<g opacity="0.9">
<path opacity="0.9" d="M597.487 191.168H592.969C591.896 191.168 591.027 191.988 591.027 193V254.733C591.027 255.745 591.896 256.566 592.969 256.566H597.487C598.559 256.566 599.429 255.745 599.429 254.733V193C599.429 191.988 598.559 191.168 597.487 191.168Z" fill="#171717"/>
<path opacity="0.9" d="M314.395 139.933H313.564C312.492 139.933 311.623 140.753 311.623 141.765V159.633C311.623 160.645 312.492 161.466 313.564 161.466H314.395C315.467 161.466 316.336 160.645 316.336 159.633V141.765C316.336 140.753 315.467 139.933 314.395 139.933Z" fill="#171717"/>
<path opacity="0.9" d="M314.826 179.349H313.394C312.321 179.349 311.452 180.17 311.452 181.182V214.997C311.452 216.009 312.321 216.829 313.394 216.829H314.826C315.899 216.829 316.768 216.009 316.768 214.997V181.182C316.768 180.17 315.899 179.349 314.826 179.349Z" fill="#171717"/>
<path opacity="0.9" d="M314.657 229.936H313.479C312.407 229.936 311.537 230.756 311.537 231.768V265.903C311.537 266.915 312.407 267.736 313.479 267.736H314.657C315.729 267.736 316.599 266.915 316.599 265.903V231.768C316.599 230.756 315.729 229.936 314.657 229.936Z" fill="#171717"/>
<path opacity="0.9" d="M562.212 69H348.788C330.68 69 316 82.9544 316 100.168V576.832C316 594.046 330.68 608 348.788 608H562.212C580.32 608 595 594.046 595 576.832V100.168C595 82.9544 580.32 69 562.212 69Z" fill="#171717"/>
<path opacity="0.9" d="M463.791 84.8896H431.075C429.263 84.8896 427.794 86.2761 427.794 87.9863V89.3226C427.794 91.0328 429.263 92.4192 431.075 92.4192H463.791C465.603 92.4192 467.072 91.0328 467.072 89.3226V87.9863C467.072 86.2761 465.603 84.8896 463.791 84.8896Z" fill="#E6E8EC" fill-opacity="0.8"/>
<path opacity="0.9" d="M477.534 92.9233C480.034 92.9233 482.061 91.0103 482.061 88.6505C482.061 86.2906 480.034 84.3776 477.534 84.3776C475.033 84.3776 473.007 86.2906 473.007 88.6505C473.007 91.0103 475.033 92.9233 477.534 92.9233Z" fill="#E6E8EC" fill-opacity="0.8"/>
</g>
<path opacity="0.5" d="M556.189 86H523.973V89.6648C523.973 91.9446 523.497 94.2021 522.573 96.3083C521.648 98.4145 520.293 100.328 518.584 101.94C516.876 103.552 514.848 104.83 512.616 105.702C510.384 106.573 507.992 107.021 505.576 107.02H402.926C398.048 107.02 393.37 105.192 389.92 101.938C386.47 98.6829 384.531 94.2685 384.529 89.6648V86H354.339C348.414 86 342.732 88.2214 338.543 92.1755C334.354 96.1296 332 101.492 332 107.084V576.334C332 581.926 334.354 587.289 338.543 591.243C342.732 595.197 348.414 597.419 354.339 597.419H556.189C562.114 597.419 567.796 595.197 571.985 591.243C576.175 587.289 578.528 581.926 578.528 576.334V107.084C578.528 101.492 576.175 96.1296 571.985 92.1755C567.796 88.2214 562.114 86 556.189 86V86Z" fill="#A02222" fill-opacity="0.8"/>
<path d="M578.59 118.801H331.867V140.293H578.59V118.801Z" fill="#E6E8EC" fill-opacity="0.8"/>
<path d="M360.344 123.274H339.463V125.066H360.344V123.274Z" fill="#3A3768"/>
<path d="M360.344 128.651H339.463V130.443H360.344V128.651Z" fill="#3A3768"/>
<path d="M360.344 134.028H339.463V135.82H360.344V134.028Z" fill="#3A3768"/>
<path d="M561.973 131.619H561.202L560.905 131.395C561.878 130.295 562.412 128.908 562.414 127.475C562.406 126.297 562.028 125.149 561.328 124.175C560.629 123.2 559.639 122.444 558.483 122C557.328 121.557 556.06 121.446 554.838 121.683C553.616 121.92 552.496 122.493 551.62 123.331C550.743 124.168 550.15 125.232 549.913 126.388C549.677 127.543 549.809 128.739 550.293 129.824C550.777 130.909 551.591 131.834 552.632 132.483C553.672 133.131 554.894 133.474 556.141 133.468C557.654 133.459 559.117 132.952 560.278 132.036L560.566 132.268V133.004L565.432 137.613L566.891 136.228L561.973 131.619ZM556.141 131.619C555.271 131.623 554.421 131.382 553.696 130.929C552.972 130.475 552.406 129.829 552.071 129.072C551.736 128.315 551.647 127.481 551.814 126.676C551.982 125.871 552.399 125.131 553.012 124.549C553.626 123.968 554.408 123.572 555.261 123.411C556.113 123.249 556.997 123.33 557.8 123.644C558.604 123.957 559.291 124.488 559.774 125.17C560.257 125.852 560.515 126.654 560.515 127.475C560.519 128.018 560.408 128.558 560.189 129.061C559.971 129.564 559.649 130.022 559.242 130.407C558.836 130.792 558.352 131.098 557.82 131.306C557.288 131.514 556.717 131.62 556.141 131.619V131.619Z" fill="#3A3768"/>
<path d="M349.899 189.552C355.663 189.552 360.336 185.142 360.336 179.701C360.336 174.261 355.663 169.851 349.899 169.851C344.136 169.851 339.463 174.261 339.463 179.701C339.463 185.142 344.136 189.552 349.899 189.552Z" fill="#E6E8EC" fill-opacity="0.8"/>
<path d="M527.833 189.552H382.641V194.929H527.833V189.552Z" fill="#E6E8EC" fill-opacity="0.8"/>
<path d="M528.308 201.194H383.116V206.571H528.308V201.194Z" fill="#E6E8EC" fill-opacity="0.8"/>
<path d="M528.782 212.844H383.59V218.221H528.782V212.844Z" fill="#E6E8EC" fill-opacity="0.8"/>
<path d="M349.899 256.725C355.663 256.725 360.336 252.315 360.336 246.875C360.336 241.435 355.663 237.025 349.899 237.025C344.136 237.025 339.463 241.435 339.463 246.875C339.463 252.315 344.136 256.725 349.899 256.725Z" fill="#E6E8EC" fill-opacity="0.8"/>
<path d="M527.833 256.726H382.641V262.103H527.833V256.726Z" fill="#E6E8EC" fill-opacity="0.8"/>
<path d="M528.308 268.368H383.116V273.745H528.308V268.368Z" fill="#E6E8EC" fill-opacity="0.8"/>
<path id="effect-button" d="M528.782 280.01H383.59V285.388H528.782V280.01Z" fill="#E6E8EC" fill-opacity="0.8"/>
<path d="M349.899 323.9C355.663 323.9 360.336 319.49 360.336 314.05C360.336 308.609 355.663 304.199 349.899 304.199C344.136 304.199 339.463 308.609 339.463 314.05C339.463 319.49 344.136 323.9 349.899 323.9Z" fill="#E6E8EC" fill-opacity="0.8"/>
<path d="M527.833 323.9H382.641V329.277H527.833V323.9Z" fill="#E6E8EC" fill-opacity="0.8"/>
<path d="M528.308 335.542H383.116V340.919H528.308V335.542Z" fill="#E6E8EC" fill-opacity="0.8"/>
<path d="M528.782 347.184H383.59V352.562H528.782V347.184Z" fill="#E6E8EC" fill-opacity="0.8"/>
<path d="M349.899 391.074C355.663 391.074 360.336 386.664 360.336 381.224C360.336 375.784 355.663 371.374 349.899 371.374C344.136 371.374 339.463 375.784 339.463 381.224C339.463 386.664 344.136 391.074 349.899 391.074Z" fill="#E6E8EC" fill-opacity="0.8"/>
<path d="M527.833 391.074H382.641V396.451H527.833V391.074Z" fill="#E6E8EC" fill-opacity="0.8"/>
<path d="M528.308 402.716H383.116V408.093H528.308V402.716Z" fill="#E6E8EC" fill-opacity="0.8"/>
<path d="M528.782 414.358H383.59V419.735H528.782V414.358Z" fill="#E6E8EC" fill-opacity="0.8"/>
<path d="M349.899 458.248C355.663 458.248 360.336 453.838 360.336 448.398C360.336 442.958 355.663 438.547 349.899 438.547C344.136 438.547 339.463 442.958 339.463 448.398C339.463 453.838 344.136 458.248 349.899 458.248Z" fill="#E6E8EC" fill-opacity="0.8"/>
<path d="M527.833 458.248H382.641V463.625H527.833V458.248Z" fill="#E6E8EC" fill-opacity="0.8"/>
<path d="M528.308 469.89H383.116V475.267H528.308V469.89Z" fill="#E6E8EC" fill-opacity="0.8"/>
<path d="M528.782 481.532H383.59V486.91H528.782V481.532Z" fill="#E6E8EC" fill-opacity="0.8"/>
<path d="M349.899 525.422C355.663 525.422 360.336 521.012 360.336 515.572C360.336 510.132 355.663 505.722 349.899 505.722C344.136 505.722 339.463 510.132 339.463 515.572C339.463 521.012 344.136 525.422 349.899 525.422Z" fill="#E6E8EC" fill-opacity="0.8"/>
<path d="M527.833 525.422H382.641V530.799H527.833V525.422Z" fill="#E6E8EC" fill-opacity="0.8"/>
<path d="M528.308 537.064H383.116V542.441H528.308V537.064Z" fill="#E6E8EC" fill-opacity="0.8"/>
<path d="M528.782 548.706H383.59V554.084H528.782V548.706Z" fill="#E6E8EC" fill-opacity="0.8"/>
<path opacity="0.1" d="M528.299 579.161C542.973 579.161 554.869 567.933 554.869 554.084C554.869 540.234 542.973 529.006 528.299 529.006C513.625 529.006 501.73 540.234 501.73 554.084C501.73 567.933 513.625 579.161 528.299 579.161Z" fill="black" fill-opacity="0.5"/>
<path d="M528.299 576.472C541.4 576.472 552.02 566.448 552.02 554.084C552.02 541.719 541.4 531.695 528.299 531.695C515.198 531.695 504.578 541.719 504.578 554.084C504.578 566.448 515.198 576.472 528.299 576.472Z" fill="#A02222" fill-opacity="0.8"/>
<path d="M243.282 92.6994L196.882 116.36C196.733 116.444 196.611 116.565 196.528 116.709C196.446 116.853 196.406 117.016 196.413 117.179C196.42 117.343 196.473 117.502 196.568 117.64C196.662 117.777 196.794 117.888 196.95 117.961L204.868 120.769C205.328 120.938 205.701 121.268 205.911 121.689L212.058 133.644C212.176 134.172 213.211 134.308 213.219 133.772L212.278 123.898C212.334 123.164 212.631 122.465 213.126 121.897L237.186 99.6528C237.255 99.5908 237.339 99.5453 237.43 99.5202C237.522 99.4951 237.618 99.4912 237.712 99.5088C237.796 99.5318 237.874 99.5736 237.937 99.6307C238.001 99.6877 238.05 99.7583 238.079 99.8366C238.108 99.9149 238.117 99.9987 238.104 100.081C238.092 100.163 238.059 100.241 238.008 100.309L217.272 124.362C216.821 124.942 216.53 125.618 216.424 126.33L215.228 134.86C215.33 135.604 215.949 135.884 216.441 135.22L220.909 130.267C220.98 130.171 221.07 130.089 221.175 130.027C221.28 129.964 221.397 129.922 221.519 129.903C221.642 129.883 221.767 129.887 221.888 129.914C222.008 129.941 222.122 129.99 222.223 130.059L233.736 137.981C233.862 138.068 234.01 138.125 234.165 138.144C234.32 138.164 234.479 138.146 234.625 138.092C234.771 138.039 234.9 137.952 235.001 137.838C235.102 137.725 235.171 137.59 235.202 137.445L244.647 93.6836C244.687 93.5178 244.676 93.3446 244.615 93.1846C244.554 93.0245 244.446 92.8844 244.303 92.7807C244.16 92.6771 243.989 92.6143 243.809 92.5999C243.63 92.5855 243.45 92.62 243.29 92.6994H243.282Z" fill="#A02222" fill-opacity="0.8"/>
<path d="M733.227 101.997L686.827 125.69C686.679 125.775 686.557 125.896 686.475 126.041C686.393 126.185 686.354 126.348 686.362 126.512C686.37 126.676 686.424 126.834 686.519 126.971C686.615 127.108 686.747 127.219 686.903 127.291L694.813 130.107C695.043 130.187 695.254 130.31 695.433 130.468C695.612 130.626 695.756 130.816 695.856 131.027L702.011 142.974C702.13 143.502 703.156 143.646 703.172 143.11L702.231 133.228C702.286 132.496 702.583 131.799 703.079 131.235L727.131 108.991C727.199 108.927 727.283 108.881 727.375 108.856C727.466 108.831 727.563 108.828 727.657 108.847C727.742 108.869 727.82 108.91 727.885 108.966C727.95 109.023 727.999 109.094 728.029 109.172C728.059 109.251 728.069 109.335 728.057 109.417C728.045 109.5 728.013 109.579 727.962 109.647L707.216 133.588C706.766 134.171 706.474 134.85 706.369 135.564L705.122 144.094C705.224 144.838 705.843 145.126 706.343 144.454L710.811 139.509C710.882 139.413 710.973 139.331 711.078 139.269C711.182 139.206 711.299 139.164 711.422 139.144C711.544 139.125 711.669 139.129 711.79 139.156C711.911 139.183 712.025 139.232 712.125 139.301L723.638 147.215C723.764 147.303 723.911 147.359 724.066 147.379C724.221 147.398 724.378 147.381 724.524 147.327C724.67 147.273 724.799 147.186 724.899 147.072C724.999 146.959 725.067 146.824 725.096 146.679L734.541 102.917C734.581 102.752 734.57 102.579 734.509 102.418C734.448 102.258 734.34 102.118 734.197 102.015C734.054 101.911 733.883 101.848 733.703 101.834C733.524 101.819 733.344 101.854 733.184 101.933L733.227 101.997Z" fill="#A02222" fill-opacity="0.8"/>
<path d="M446.895 15.3072L415.213 31.4786C415.104 31.5337 415.013 31.6165 414.952 31.7177C414.89 31.819 414.86 31.9345 414.864 32.0512C414.868 32.1679 414.907 32.281 414.977 32.3779C415.046 32.4747 415.142 32.5512 415.255 32.5988L420.664 34.5192C420.978 34.6323 421.234 34.8561 421.376 35.1433L425.615 43.305C425.7 43.6651 426.404 43.7611 426.412 43.4011L425.768 36.6477C425.808 36.1493 426.01 35.6746 426.344 35.2874L442.774 20.0842C442.821 20.0416 442.877 20.0105 442.94 19.9938C443.002 19.977 443.067 19.9751 443.131 19.9882C443.193 20.0016 443.25 20.0299 443.297 20.0702C443.344 20.1105 443.38 20.1616 443.4 20.2186C443.421 20.2756 443.425 20.3365 443.414 20.3956C443.402 20.4547 443.375 20.51 443.334 20.5563L429.176 36.9037C428.879 37.3027 428.69 37.7642 428.625 38.248L427.777 44.0732C427.845 44.5853 428.26 44.7774 428.625 44.3213L431.677 40.9446C431.773 40.8245 431.914 40.7431 432.071 40.7164C432.228 40.6897 432.39 40.7197 432.525 40.8005L440.384 46.2097C440.47 46.2695 440.571 46.3078 440.677 46.321C440.783 46.3342 440.891 46.3219 440.991 46.2852C441.091 46.2484 441.179 46.1885 441.248 46.111C441.317 46.0334 441.363 45.9408 441.384 45.8416L447.836 15.9633C447.866 15.8499 447.861 15.7306 447.82 15.62C447.779 15.5095 447.706 15.4125 447.607 15.3411C447.509 15.2697 447.391 15.2269 447.267 15.218C447.144 15.2092 447.02 15.2346 446.912 15.2912L446.895 15.3072Z" fill="#A02222" fill-opacity="0.8"/>
<path d="M627.194 0.0800233L595.512 16.2594C595.405 16.3152 595.317 16.3979 595.257 16.4982C595.197 16.5986 595.167 16.7126 595.172 16.8278C595.176 16.943 595.214 17.0547 595.282 17.1507C595.349 17.2467 595.444 17.3232 595.554 17.3716L600.963 19.292C601.28 19.4055 601.536 19.6328 601.675 19.9242L605.872 28.0779C605.957 28.4379 606.66 28.534 606.669 28.1739L606.058 21.4285C606.098 20.9275 606.299 20.4499 606.635 20.0602L623.065 4.85702C623.111 4.81442 623.168 4.78334 623.23 4.76658C623.292 4.74981 623.358 4.7479 623.421 4.761C623.483 4.77445 623.541 4.80269 623.588 4.84303C623.635 4.88336 623.671 4.93444 623.691 4.9914C623.712 5.04836 623.716 5.10931 623.704 5.16843C623.693 5.22754 623.665 5.28287 623.625 5.32912L609.45 21.6925C609.153 22.0916 608.963 22.553 608.899 23.0368L608.051 28.87C608.119 29.3741 608.542 29.5662 608.899 29.1101L611.951 25.7334C611.999 25.6685 612.06 25.6132 612.131 25.5708C612.202 25.5284 612.281 25.4997 612.364 25.4863C612.447 25.4729 612.531 25.4751 612.613 25.4928C612.695 25.5105 612.772 25.5433 612.841 25.5893L620.708 30.9985C620.794 31.0586 620.894 31.0972 621 31.1106C621.106 31.1239 621.213 31.1116 621.313 31.0747C621.412 31.0379 621.5 30.9777 621.567 30.9C621.635 30.8222 621.681 30.7294 621.7 30.6304L628.101 0.752164C628.131 0.638723 628.126 0.519383 628.085 0.408827C628.045 0.298272 627.971 0.201324 627.873 0.129906C627.774 0.0584871 627.656 0.0157135 627.533 0.00685128C627.409 -0.00201098 627.285 0.0234233 627.177 0.0800233H627.194Z" fill="#A02222" fill-opacity="0.8"/>
<path d="M747.681 207.899L654.153 200.61C653.831 200.578 653.506 200.633 653.216 200.77C652.927 200.907 652.684 201.119 652.518 201.382C652.353 201.644 652.27 201.946 652.28 202.252C652.29 202.558 652.393 202.854 652.576 203.106L661.47 214.565C661.729 214.896 661.916 215.272 662.021 215.672C662.126 216.071 662.146 216.486 662.08 216.893L658.926 240.338C658.562 241.226 659.952 242.387 660.52 241.602L669.303 225.983C670.139 224.944 671.298 224.177 672.618 223.791L731.37 212.732C731.535 212.703 731.705 212.711 731.866 212.757C732.027 212.803 732.174 212.885 732.294 212.996C732.408 213.11 732.49 213.249 732.532 213.4C732.574 213.552 732.574 213.711 732.534 213.862C732.493 214.014 732.413 214.153 732.299 214.268C732.186 214.382 732.045 214.468 731.887 214.517L676.332 231.184C675.076 231.655 673.961 232.407 673.084 233.377L662.445 244.947C661.834 246.155 662.445 247.14 663.886 246.603L675.645 243.331C676.059 243.183 676.518 243.194 676.923 243.362C677.329 243.529 677.649 243.84 677.815 244.227L686.802 266.584C686.907 266.824 687.073 267.036 687.285 267.203C687.497 267.369 687.749 267.484 688.019 267.537C688.289 267.591 688.568 267.581 688.833 267.51C689.098 267.439 689.341 267.308 689.54 267.128L748.69 210.612C748.913 210.399 749.068 210.131 749.137 209.838C749.206 209.546 749.188 209.241 749.082 208.959C748.977 208.676 748.79 208.427 748.543 208.24C748.295 208.052 747.997 207.934 747.681 207.899V207.899Z" fill="#A02222" fill-opacity="0.8"/>
<path d="M593.666 310.073C593.573 313.417 592.377 316.65 592.191 319.987C602.61 320.475 612.894 315.706 623.22 317.162C620.337 315.402 618.794 312.225 617.879 309.096C616.728 305.063 616.383 300.862 616.861 296.71C616.89 296.478 616.935 296.248 616.997 296.022C617.378 294.421 618.37 292.077 618.099 290.789C617.751 289.092 616.056 289.428 614.521 289.524C609.856 289.861 605.212 290.428 600.609 291.221C599.414 291.413 587.723 294.165 587.553 293.877C589.612 296.977 591.317 300.273 592.64 303.711C593.361 305.762 593.707 307.913 593.666 310.073Z" fill="#EE8E9E" fill-opacity="0.8"/>
<path d="M494.931 300.692C495.828 301.844 496.903 302.864 498.118 303.717C498.907 304.333 499.721 304.957 500.569 305.517C502.08 306.621 503.884 307.313 505.782 307.518C508.266 307.678 513.531 306.301 515.108 304.317C515.762 303.309 516.073 302.136 515.998 300.956C515.978 299.358 515.692 297.773 515.15 296.259C514.183 293.794 512.829 291.479 511.132 289.394C509.335 287.041 507.342 284.721 504.672 283.297C503.78 282.843 502.86 282.443 501.917 282.096L497.067 280.224C496.802 280.1 496.514 280.024 496.219 280C494.914 280 494.676 281.888 495.372 282.905C496.847 284.953 500.17 285.521 501.111 287.842C500.324 287.863 499.564 288.119 498.941 288.573C498.318 289.028 497.864 289.657 497.644 290.37C497.61 290.75 497.446 291.11 497.177 291.394C496.754 291.722 496.084 291.538 495.592 291.778C494.744 292.219 495.109 293.427 495.016 294.347C494.814 295.14 494.53 295.911 494.168 296.651C493.979 297.337 493.949 298.053 494.081 298.751C494.212 299.448 494.502 300.111 494.931 300.692V300.692Z" fill="#EE8E9E" fill-opacity="0.8"/>
<path d="M639.275 633.756C638.478 632.956 637.164 633.124 636.045 633.292C630.029 634.191 623.95 634.657 617.86 634.684C617.097 631.172 619.309 627.755 620.021 624.226C620.122 623.317 620.365 622.427 620.742 621.586C621.59 620.033 623.531 619.321 625.345 618.961C628.626 618.313 633.747 617.161 635.578 620.281C637.774 624.034 638.478 629.579 639.275 633.756Z" fill="#65617D"/>
<path d="M572.647 620.465C575.114 622.066 578.183 622.554 581.125 622.914C584.067 623.274 587.161 623.546 589.849 624.794C592.172 625.874 594.13 627.651 596.631 628.427C598.916 629.018 601.322 629.054 603.625 628.531C606.389 628.043 609.331 627.091 610.823 624.842C612.146 622.842 612.01 620.297 611.823 617.945C611.612 615.28 611.408 612.616 611.196 609.943C611.206 609.268 611.025 608.602 610.67 608.015C608.678 605.262 603.82 609.159 601.218 609.159C597.097 609.159 592.68 607.047 589.713 604.47C589.45 604.214 589.147 603.999 588.814 603.83C587.645 603.334 586.466 604.254 585.423 605.054L585.076 605.326C582.668 607.127 579.438 607.495 576.471 608.223C573.503 608.951 570.307 610.415 569.392 613.184C569.332 613.357 569.284 613.533 569.248 613.712C568.688 616.28 570.333 618.985 572.647 620.465Z" fill="#A02222" fill-opacity="0.8"/>
<path opacity="0.05" d="M527.51 624.776C529.977 626.376 533.046 626.864 535.987 627.224C538.929 627.584 542.024 627.856 544.711 629.104C547.034 630.185 548.992 631.961 551.493 632.737C553.778 633.328 556.184 633.364 558.488 632.841C561.251 632.353 564.193 631.401 565.685 629.152C567.008 627.152 566.872 624.607 566.686 622.255C566.474 619.59 566.27 616.926 566.058 614.253C566.069 613.578 565.887 612.912 565.533 612.325C563.54 609.572 558.683 613.469 556.08 613.469C551.96 613.469 547.543 611.357 544.575 608.78C544.312 608.525 544.009 608.309 543.677 608.14C542.507 607.644 541.328 608.564 540.286 609.364L539.938 609.636C537.53 611.437 534.3 611.805 531.333 612.533C528.366 613.261 525.17 614.725 524.254 617.494C524.194 617.667 524.146 617.843 524.11 618.022C523.55 620.591 525.195 623.295 527.51 624.776Z" fill="#A02222" fill-opacity="0.5"/>
<path d="M572.647 621.378C575.114 622.978 578.183 623.466 581.125 623.826C584.067 624.186 587.161 624.458 589.849 625.706C592.172 626.787 594.13 628.563 596.631 629.339C598.916 629.93 601.322 629.966 603.625 629.443C606.565 628.856 609.146 627.212 610.823 624.858C612.145 622.858 612.01 620.313 611.823 617.961C611.611 615.296 611.408 612.632 611.196 609.959C611.206 609.284 611.025 608.618 610.67 608.031C608.678 605.278 603.82 609.175 601.217 609.175C597.097 609.175 592.68 607.063 589.713 604.486C589.45 604.231 589.147 604.015 588.814 603.846C587.644 603.35 586.466 604.27 585.423 605.07C586.112 607.053 587.084 608.937 588.314 610.671C589.31 612.144 590.64 613.39 592.209 614.317C593.778 615.244 595.547 615.83 597.385 616.032C599.225 616.16 601.116 615.816 602.896 616.264C604.676 616.713 606.287 618.425 605.702 620.065C605.117 621.706 602.913 622.002 601.116 622.09C598.572 622.226 596.029 622.338 593.63 621.602C592.172 621.137 590.841 620.377 589.391 619.825C583.355 617.425 575.733 618.785 570.739 614.792C570.265 614.384 569.755 614.014 569.213 613.688C567.908 616.312 570.333 619.881 572.647 621.378Z" fill="#E8EAF2"/>
<path opacity="0.05" d="M566.679 621.059C569.146 622.66 572.215 623.148 575.157 623.508C578.099 623.868 581.193 624.14 583.881 625.388C586.204 626.468 588.162 628.245 590.663 629.021C592.948 629.612 595.354 629.647 597.657 629.125C600.597 628.538 603.179 626.893 604.855 624.54C606.178 622.54 606.042 619.995 605.856 617.643C605.644 614.978 605.44 612.314 605.228 609.641C605.238 608.965 605.057 608.3 604.703 607.713C602.71 604.96 597.852 608.857 595.25 608.857C591.129 608.857 586.712 606.744 583.745 604.168C583.482 603.912 583.179 603.696 582.847 603.528C581.677 603.032 580.498 603.952 579.455 604.752C580.144 606.735 581.117 608.619 582.346 610.353C583.342 611.826 584.673 613.072 586.242 613.999C587.811 614.926 589.579 615.512 591.418 615.714C593.257 615.842 595.148 615.498 596.928 615.946C598.709 616.394 600.32 618.107 599.735 619.747C599.15 621.387 596.945 621.683 595.148 621.772C592.605 621.908 590.061 622.02 587.662 621.283C586.204 620.819 584.873 620.059 583.423 619.507C577.387 617.107 569.765 618.467 564.772 614.474C564.298 614.065 563.787 613.696 563.246 613.37C561.94 615.994 564.365 619.563 566.679 621.059Z" fill="#A02222" fill-opacity="0.5"/>
<path d="M633.147 448.037C635.071 456.949 633.247 466.218 628.06 473.883C626.645 475.955 624.991 477.883 623.923 480.14C623.23 481.745 622.691 483.405 622.312 485.101L617.726 503.041C616.488 507.842 615.242 512.803 615.615 517.764C615.878 521.221 616.802 525.101 614.547 527.838C614 528.356 613.539 528.949 613.182 529.598C612.965 530.361 612.965 531.164 613.182 531.927C615.505 544.921 617.217 558.516 613.029 571.087C609.239 582.481 609.019 595.092 605.789 606.662C605.391 608.095 604.941 609.599 603.788 610.607C602.924 611.293 601.888 611.758 600.779 611.959C596.022 613.024 591.004 611.775 586.57 609.831C583.45 608.471 580.093 606.078 580.364 602.846C580.491 601.309 581.441 599.957 582.059 598.541C583.331 595.764 583.433 592.659 583.755 589.651C584.603 582.097 587.078 574.808 588.943 567.414C590.809 560.021 592.08 552.299 590.503 544.849C587.274 529.439 582.109 514.447 575.116 500.192C574.817 499.434 574.335 498.752 573.709 498.2C573.009 497.821 572.343 497.391 571.716 496.911C571.233 496.203 570.923 495.402 570.809 494.567C570.114 492.214 568.054 490.47 566.672 488.406C563.179 483.173 564.29 476.467 564.417 470.29C564.544 464.281 563.629 458.223 564.671 452.294C565.714 446.365 569.309 440.292 575.362 438.451C578.363 437.531 581.61 437.739 584.747 438.035C601.389 439.547 617.548 442.396 633.147 448.037Z" fill="#383838"/>
<path opacity="0.05" d="M628.997 448.254C630.922 457.165 629.097 466.434 623.911 474.099C622.495 476.171 620.842 478.1 619.773 480.356C619.08 481.961 618.541 483.621 618.163 485.317L613.576 503.257C612.338 508.058 611.092 513.019 611.465 517.98C611.728 521.437 612.652 525.318 610.397 528.054C609.85 528.572 609.39 529.166 609.032 529.815C608.816 530.577 608.816 531.38 609.032 532.143C611.355 545.138 613.067 558.733 608.879 571.303C605.09 582.698 604.869 595.308 601.639 606.879C601.241 608.311 600.791 609.815 599.638 610.823C598.774 611.509 597.738 611.975 596.629 612.176C591.873 613.24 586.854 611.992 582.42 610.047C579.3 608.687 575.943 606.295 576.214 603.062C576.341 601.526 577.291 600.173 577.91 598.757C579.181 595.98 579.283 592.876 579.605 589.867C580.453 582.314 582.929 575.024 584.794 567.63C586.659 560.237 587.931 552.515 586.354 545.066C583.124 529.655 577.959 514.664 570.966 500.408C570.667 499.65 570.185 498.968 569.559 498.416C568.859 498.038 568.193 497.607 567.567 497.128C567.083 496.42 566.773 495.619 566.66 494.783C565.964 492.431 563.904 490.686 562.522 488.622C559.03 483.389 560.14 476.683 560.267 470.506C560.394 464.497 559.479 458.44 560.522 452.51C561.564 446.581 565.159 440.508 571.212 438.668C574.213 437.747 577.46 437.955 580.597 438.251C597.239 439.764 613.398 442.612 628.997 448.254Z" fill="#9C9C9C" fill-opacity="0.17"/>
<path d="M565.451 485.709C565.505 488.044 565.789 490.369 566.299 492.654C569.232 508.172 572.341 523.642 575.625 539.064C575.921 540.408 576.201 541.745 576.583 543.065C577.822 547.363 579.983 551.374 582.933 554.851C596.752 571.103 597.947 594.708 605.441 614.304C605.942 615.632 606.45 616.96 606.984 618.305C608.341 621.627 609.886 624.878 611.613 628.043C611.812 628.504 612.141 628.905 612.563 629.203C613.029 629.426 613.551 629.522 614.072 629.483C620.826 629.52 627.498 628.088 633.571 625.298C634.433 625.002 635.163 624.438 635.64 623.698C635.874 623.1 635.95 622.457 635.86 621.825C635.657 617.945 635.402 613.912 633.435 610.503C632.134 608.458 630.516 606.608 628.637 605.014C628.052 592.811 626.78 580.593 623.94 568.686C622.482 562.597 620.676 556.444 616.929 551.291C614.165 547.49 610.206 543.745 610.689 539.16C610.91 537.144 611.8 534.639 610.062 533.455C609.307 532.935 608.18 532.871 607.671 532.127C607.462 531.78 607.345 531.39 607.332 530.99C606.977 527.843 607.186 524.662 607.951 521.58C608.579 519.568 609.075 517.521 609.434 515.451C609.655 513.355 609.282 511.09 607.798 509.53C607.705 505.345 607.798 501 607.739 496.815C607.568 494.433 607.779 492.04 608.366 489.718C608.697 488.622 609.214 487.573 609.468 486.453C610.401 482.452 608.086 477.651 610.842 474.451C611.986 473.122 613.758 472.466 615.259 471.506C618.268 469.618 620.235 466.521 621.329 463.272C622.293 459.982 622.862 456.6 623.024 453.19C623.105 452.464 623.105 451.732 623.024 451.006C622.974 450.631 622.868 450.265 622.711 449.918C621.863 448.101 619.557 447.397 617.505 446.933C604.484 443.984 591.136 442.512 577.744 442.548C572.793 439.347 570.004 440.5 567.91 443.876C566.744 445.933 565.803 448.097 565.104 450.334C564.146 453.062 564.086 468.377 563.154 471.138C561.967 474.667 565.451 481.964 565.451 485.709Z" fill="#3C3C3F"/>
<path d="M659.995 345.376C660.359 347.777 659.147 350.177 658.994 352.578C658.876 354.706 659.596 356.778 660.003 358.867C661.605 367.029 658.528 375.294 655.408 383.056C654.806 384.321 654.436 385.674 654.314 387.057C654.23 389.585 655.773 391.906 656.197 394.41C657.087 399.667 652.975 404.612 652.89 409.934C652.89 412.382 653.67 414.879 653.017 417.247C652.585 418.847 651.542 420.192 650.796 421.672C649.482 424.288 649.101 427.273 647.871 429.906C645.599 434.707 640.716 437.803 636.078 440.668C633.433 439.868 630.576 438.852 629.127 436.611C628.489 435.504 628.078 434.293 627.914 433.042C626.905 427.601 626.939 422.04 626.982 416.519C626.899 411.762 627.165 407.006 627.779 402.284C628.72 396.283 630.78 390.497 632.263 384.592C634.129 377.143 635.087 369.445 637.994 362.3C640.538 356.026 644.531 350.385 648.728 344.992C650.321 342.928 651.585 339.991 654.662 340.463C655.976 340.67 657.192 341.251 658.145 342.13C659.099 343.008 659.744 344.141 659.995 345.376Z" fill="#171717" fill-opacity="0.8"/>
<path opacity="0.05" d="M657.029 341.964C657.394 344.364 656.181 346.765 656.029 349.165C655.91 351.294 656.631 353.366 657.038 355.454C658.64 363.616 655.562 371.882 652.443 379.643C651.84 380.909 651.47 382.262 651.349 383.644C651.264 386.173 652.807 388.493 653.231 390.998C654.121 396.255 650.009 401.2 649.925 406.521C649.925 408.97 650.705 411.466 650.052 413.835C649.619 415.435 648.577 416.779 647.831 418.259C646.516 420.876 646.135 423.861 644.906 426.493C642.634 431.294 637.75 434.391 633.113 437.255C630.468 436.455 627.611 435.439 626.161 433.199C625.523 432.091 625.112 430.881 624.949 429.63C623.94 424.189 623.974 418.628 624.016 413.106C623.933 408.35 624.2 403.593 624.813 398.871C625.754 392.87 627.814 387.085 629.298 381.18C631.163 373.73 632.121 366.033 635.029 358.887C637.572 352.614 641.565 346.973 645.762 341.58C647.356 339.515 648.619 336.578 651.696 337.051C653.011 337.257 654.226 337.839 655.18 338.717C656.133 339.595 656.779 340.728 657.029 341.964Z" fill="#171717" fill-opacity="0.5"/>
<path opacity="0.1" d="M592.553 292.877C594.612 295.977 596.317 299.273 597.64 302.711C599.521 303.149 601.451 303.37 603.388 303.367C610.899 303.367 616.223 299.366 620.64 294.237C621.022 292.637 623.404 291.077 623.133 289.789C622.785 288.092 621.09 288.428 619.555 288.524C614.89 288.861 610.246 289.428 605.643 290.221C604.414 290.413 592.723 293.197 592.553 292.877Z" fill="black" fill-opacity="0.5"/>
<path d="M603.354 302.751C616.651 302.751 627.431 292.577 627.431 280.026C627.431 267.476 616.651 257.302 603.354 257.302C590.057 257.302 579.277 267.476 579.277 280.026C579.277 292.577 590.057 302.751 603.354 302.751Z" fill="#EE8E9E" fill-opacity="0.8"/>
<path opacity="0.1" d="M572.935 442.828C577.098 442.596 581.294 442.748 585.474 442.908C588.09 442.938 590.697 443.19 593.265 443.66C596.427 444.341 599.386 445.701 602.506 446.549C607.5 447.925 612.764 447.981 617.944 448.469C621.34 448.782 624.714 449.279 628.05 449.958C627.999 449.583 627.894 449.217 627.736 448.87C626.888 447.053 624.582 446.349 622.531 445.885C609.509 442.936 596.161 441.464 582.77 441.5C577.819 438.331 575.029 439.468 572.935 442.828Z" fill="black" fill-opacity="0.5"/>
<path d="M584.34 318.202C585.391 319.346 586.799 320.603 588.358 320.235C588.921 320.049 589.447 319.779 589.918 319.434C592.691 317.746 596.099 317.346 599.363 316.882C605.959 315.95 612.476 314.57 618.862 312.753C620.712 312.118 622.652 311.746 624.618 311.649C628.696 311.649 632.316 314.233 634.868 317.25C637.42 320.267 639.209 323.803 641.752 326.836C643.541 328.996 645.669 330.901 647.339 333.149C651.578 338.822 652.426 346.224 651.366 353.073C650.306 359.923 647.381 366.388 644.507 372.758C642.974 376.461 641.099 380.03 638.904 383.424C639.87 388.625 639.361 394.578 636.742 399.251C635.894 400.771 634.843 402.252 634.554 403.956C634.427 405.106 634.479 406.268 634.707 407.405L635.936 415.63C636.309 418.135 636.682 420.648 637.166 423.136C638.013 427.689 639.251 432.626 637.013 436.739C634.334 441.668 637.149 447.997 636.445 453.542C628.896 450.782 620.984 449.003 612.927 448.253C607.756 447.781 602.491 447.717 597.498 446.349C594.378 445.493 591.419 444.132 588.257 443.452C585.689 442.978 583.081 442.726 580.466 442.7C574.692 442.484 568.885 442.268 563.179 443.068C562.713 443.132 562.153 443.164 561.874 442.812C561.751 442.619 561.689 442.397 561.696 442.172C561.612 440.151 562.125 438.148 563.179 436.387C563.9 435.171 564.875 433.986 564.875 432.594C564.826 431.942 564.657 431.303 564.375 430.706L561.831 424.304C559.695 418.927 560.712 412.686 559.601 407.037C558.723 402.626 558.157 398.164 557.906 393.682C557.702 389.849 557.83 385.68 560.28 382.632C560.994 381.903 561.614 381.097 562.128 380.231C562.479 379.3 562.629 378.313 562.569 377.327C562.62 369.661 562.396 361.998 561.899 354.338C564.035 350.713 566.265 347.008 568.402 343.391C570.886 339.175 573.403 334.878 574.412 330.149C575.074 327.012 575.048 323.787 575.523 320.627C575.572 319.826 575.867 319.056 576.371 318.41C577.219 317.538 578.566 317.41 579.762 317.45C581.32 317.474 582.865 317.728 584.34 318.202Z" fill="#171717" fill-opacity="0.8"/>
<path opacity="0.1" d="M501.196 303.599C502.708 304.703 504.511 305.395 506.409 305.6C508.894 305.76 514.158 304.383 515.735 302.399C516.389 301.391 516.7 300.218 516.625 299.038C516.29 298.938 515.942 298.876 515.591 298.854C512.897 298.574 510.174 298.677 507.512 299.158C504.883 299.767 502.349 301.271 501.238 303.599C501.204 303.599 501.204 303.599 501.196 303.599Z" fill="black" fill-opacity="0.5"/>
<path d="M577.726 351.461C576.267 353.189 574.733 354.958 572.639 355.982C570.248 357.15 567.434 357.174 564.738 357.126C553.631 356.901 542.568 355.755 531.674 353.702C530.434 353.5 529.217 353.192 528.037 352.781C526.731 352.191 525.499 351.464 524.366 350.613C520.78 348.212 517.151 345.708 514.421 342.435C511.184 338.476 509.147 333.76 508.529 328.792C505.943 326.544 504.57 323.343 503.273 320.247C502.629 318.938 502.222 317.537 502.069 316.102C502.001 314.629 503.036 313.085 502.747 311.637C502.247 309.143 500.906 306.87 498.924 305.155C498.505 304.87 498.189 304.471 498.017 304.011C497.963 303.63 498.04 303.243 498.237 302.907C499.339 300.57 501.874 299.066 504.502 298.458C507.167 297.976 509.893 297.874 512.59 298.154C513.488 298.314 514.372 298.536 515.235 298.818L517.117 303.499C517.369 304.283 517.788 305.009 518.347 305.636C518.769 305.992 519.216 306.321 519.686 306.62C520.642 307.385 521.383 308.36 521.844 309.46C522.306 310.56 522.473 311.75 522.331 312.925C524.033 313.55 525.418 314.763 526.206 316.318C526.993 317.873 527.123 319.653 526.57 321.295C527.985 321.583 529.297 322.207 530.384 323.109C531.47 324.011 532.293 325.161 532.776 326.448C532.924 327.036 533.214 327.584 533.624 328.048C534.246 328.494 535.014 328.717 535.794 328.68C537.922 328.8 539.779 330.385 541.729 329.529C543.916 328.558 546.363 328.235 548.748 328.6C549.24 328.708 549.745 328.748 550.249 328.72C550.68 328.655 551.096 328.52 551.478 328.32C552.348 327.844 553.288 327.493 554.267 327.28C554.76 327.184 555.272 327.224 555.741 327.396C556.211 327.567 556.617 327.863 556.913 328.248C557.591 327.552 557.998 326.648 558.608 325.912C558.879 325.517 559.259 325.2 559.708 324.996C560.156 324.791 560.656 324.707 561.151 324.752C560.507 324.215 561.151 323.151 561.999 322.943C562.848 322.882 563.701 322.912 564.543 323.031C566.772 323.031 568.476 321.111 570.638 320.631C572.631 320.167 575.276 320.719 576.301 319.03C576.657 318.438 576.734 317.638 577.344 317.27C577.763 317.078 578.239 317.027 578.692 317.126C580.103 317.303 581.475 317.695 582.753 318.286C584.839 325.984 583.745 333.977 582.151 341.779C581.591 345.314 580.066 348.651 577.726 351.461Z" fill="#171717" fill-opacity="0.8"/>
<path opacity="0.1" d="M581.362 380.303L591.731 400.035C590.612 398.211 588.246 397.499 586.381 396.331C584.022 394.713 582.246 392.451 581.294 389.849C580.353 387.253 579.696 384.571 579.336 381.848C579.124 380.591 578.692 378.839 579.336 377.703C580.489 377.943 580.871 379.375 581.362 380.303Z" fill="black" fill-opacity="0.5"/>
<path opacity="0.1" d="M611.196 397.059C613.536 399.243 616.393 400.852 618.97 402.788C624.981 407.309 629.271 413.502 633.459 419.592C634.635 421.183 635.627 422.889 636.418 424.681C635.926 425.081 635.188 424.681 634.722 424.264L626.583 417.511C625.583 416.741 624.674 415.872 623.87 414.919C622.454 413.118 621.827 410.918 620.547 408.997C619.15 407.18 617.483 405.563 615.596 404.196C613.731 402.684 605.134 395.827 607.228 393.162C608.72 393.922 609.958 395.899 611.196 397.059Z" fill="black" fill-opacity="0.5"/>
<path d="M588.401 312.529C590.944 311.009 594.03 310.369 597.023 309.848C598.818 309.463 600.665 309.339 602.5 309.48C604.195 309.68 605.823 310.281 607.527 310.385C609.926 310.513 612.224 309.584 614.53 309C616.836 308.416 619.515 308.2 621.465 309.488C621.876 309.878 622.402 310.142 622.974 310.248C623.564 310.178 624.112 309.925 624.534 309.528C626.166 308.431 628.145 307.889 630.146 307.989C632.148 308.089 634.054 308.826 635.555 310.08C639.972 313.985 639.472 321.619 644.643 324.579C646.076 325.38 647.899 325.828 648.729 327.196C648.93 327.631 649.165 328.051 649.433 328.452C649.783 328.8 650.208 329.073 650.679 329.252C652.17 329.889 653.59 330.664 654.918 331.565C655.583 332.024 656.142 332.605 656.563 333.274C656.984 333.942 657.258 334.683 657.368 335.454C657.388 336.582 657.13 337.7 656.614 338.718C654.082 344.578 649.69 349.553 644.042 352.962C638.393 356.37 631.765 358.045 625.068 357.754C623.878 357.815 622.706 357.471 621.761 356.786C621.263 356.257 620.87 355.647 620.6 354.986C618.167 350.185 613.606 346.616 610.698 342.039C609.002 339.311 607.866 336.262 606.06 333.581C603.339 329.509 599.185 326.5 595.124 323.579C592.835 321.931 590.283 320.203 587.409 320.323C584.866 320.427 582.984 320.555 583.925 317.586C584.729 315.45 586.317 313.656 588.401 312.529Z" fill="#171717" fill-opacity="0.8"/>
<path opacity="0.05" d="M589.976 310.759C592.52 309.239 595.606 308.599 598.598 308.079C600.393 307.693 602.24 307.569 604.075 307.711C605.771 307.911 607.398 308.511 609.102 308.615C611.502 308.743 613.799 307.815 616.105 307.23C618.411 306.646 621.09 306.43 623.04 307.719C623.452 308.108 623.977 308.372 624.549 308.479C625.139 308.408 625.688 308.155 626.109 307.759C627.742 306.661 629.72 306.119 631.722 306.219C633.723 306.319 635.63 307.057 637.13 308.311C641.547 312.215 641.047 319.849 646.219 322.81C647.651 323.61 649.474 324.058 650.305 325.426C650.506 325.861 650.741 326.281 651.009 326.682C651.358 327.03 651.783 327.303 652.255 327.483C653.745 328.119 655.165 328.894 656.494 329.795C657.158 330.254 657.718 330.836 658.139 331.504C658.56 332.172 658.834 332.913 658.944 333.684C658.964 334.813 658.705 335.93 658.189 336.949C655.658 342.808 651.266 347.783 645.617 351.192C639.969 354.6 633.34 356.275 626.643 355.985C625.454 356.045 624.281 355.702 623.337 355.016C622.838 354.487 622.445 353.877 622.175 353.216C619.742 348.415 615.181 344.846 612.273 340.269C610.578 337.541 609.442 334.492 607.636 331.812C604.914 327.739 600.76 324.73 596.699 321.809C594.41 320.161 591.858 318.433 588.984 318.553C586.441 318.657 584.559 318.785 585.5 315.816C586.304 313.68 587.892 311.886 589.976 310.759Z" fill="#171717" fill-opacity="0.5"/>
<path d="M579.962 641.146C581.708 642.682 584.108 643.354 586.439 643.834C591.756 644.807 597.139 645.433 602.547 645.707L607.812 646.091C612.899 646.459 618.087 646.827 623.242 646.851C629.603 646.871 635.952 646.351 642.215 645.299C642.503 645.29 642.787 645.224 643.047 645.105C643.307 644.987 643.537 644.818 643.724 644.611C643.916 644.264 643.996 643.871 643.953 643.482C643.836 637.436 643.049 631.418 641.605 625.527C641.011 623.126 636.408 628.535 636.196 628.727C634.924 630.096 633.958 630.728 632.016 630.824C626.717 631.096 620.791 628.055 616.578 625.351C615.678 624.717 614.722 624.157 613.721 623.678C612.984 623.37 612.205 623.16 611.406 623.054C608.681 622.821 605.943 623.346 603.531 624.566C600.36 626.047 597.596 628.175 594.459 629.695C591.911 630.92 589.162 631.732 586.329 632.096C583.463 632.464 580.038 632.648 578.563 634.993C577.351 636.993 578.224 639.618 579.962 641.146Z" fill="#A02222" fill-opacity="0.8"/>
<path d="M580.871 641.782C582.617 643.318 585.016 643.99 587.348 644.462C592.664 645.442 598.046 646.07 603.456 646.343L608.72 646.727C613.807 647.095 618.996 647.463 624.15 647.487C630.511 647.507 636.861 646.987 643.124 645.935C643.412 645.926 643.695 645.86 643.955 645.741C644.215 645.623 644.446 645.454 644.633 645.247C645.127 644.629 645.524 643.947 645.811 643.222C645.701 637.173 643.963 631.14 642.522 625.242C641.928 622.842 637.325 628.251 637.113 628.443C635.841 629.811 634.875 630.444 632.933 630.54C627.635 630.812 621.708 627.771 617.495 625.066C616.595 624.432 615.64 623.873 614.638 623.394C613.901 623.086 613.122 622.875 612.323 622.77C613.002 626.371 618.47 630.716 621.293 632.036C626.999 634.708 633.781 633.38 640.148 633.692C640.613 633.677 641.073 633.782 641.479 633.996C642.242 634.476 642.327 635.493 642.267 636.357C642.216 637.789 642.021 639.477 640.699 640.205C640.041 640.501 639.317 640.644 638.588 640.622C622.898 641.257 607.179 640.722 591.578 639.021C588.963 638.86 586.39 638.32 583.948 637.421C582.348 636.71 580.855 635.803 579.506 634.724C577.462 636.285 579.133 640.254 580.871 641.782Z" fill="#E8EAF2"/>
<path d="M588.986 280.786C589.079 283.131 587.375 287.692 592.03 286.388C594.81 285.627 595.59 282.531 599.109 283.187C602.627 283.843 603.441 287.988 604.636 290.652C605.609 292.782 607.116 294.657 609.027 296.115C610.938 297.573 613.196 298.571 615.607 299.022C616.599 299.242 617.632 299.242 618.625 299.022C620.897 298.406 622.194 296.198 623.118 294.149C623.925 292.418 624.591 290.631 625.11 288.804C625.472 287.517 625.713 286.202 625.831 284.875C625.903 283.972 625.903 283.066 625.831 282.163C625.407 276.818 622.185 271.945 618.057 268.264C613.928 264.583 608.926 261.918 603.975 259.294C602.362 258.342 600.615 257.606 598.786 257.109C596.982 256.761 595.13 256.688 593.301 256.893C590.894 256.991 588.527 257.515 586.324 258.438C585.422 258.849 584.593 259.389 583.865 260.038C582.832 260.941 582.093 262.104 581.737 263.391C580.847 266.839 583.179 269.952 585.069 272.681C586.773 275.193 588.859 277.762 588.986 280.786Z" fill="black" fill-opacity="0.8"/>
<path opacity="0.1" d="M515.642 330.221C516.634 327.82 520.813 321.307 519.609 319.019C518.354 320.7 517.286 322.499 516.422 324.388C515.633 326.252 516.278 328.709 515.642 330.221Z" fill="black" fill-opacity="0.5"/>
<path opacity="0.1" d="M584.95 272.769C583.051 270.04 580.711 266.927 581.61 263.479C582.047 261.958 583 260.614 584.323 259.654C584.015 260.154 583.784 260.693 583.636 261.254C582.738 264.711 585.078 267.816 586.968 270.544C588.664 272.945 590.741 275.545 590.868 278.546C590.961 280.898 589.257 285.459 593.92 284.147C596.692 283.387 597.472 280.282 600.999 280.946C604.526 281.611 605.323 285.747 606.518 288.412C607.491 290.541 608.999 292.414 610.91 293.871C612.821 295.328 615.079 296.324 617.488 296.774C618.481 296.994 619.514 296.994 620.507 296.774C621.019 296.637 621.501 296.415 621.931 296.118C621.219 297.458 619.986 298.487 618.489 298.99C617.496 299.21 616.463 299.21 615.471 298.99C613.059 298.539 610.8 297.541 608.888 296.083C606.975 294.625 605.467 292.75 604.492 290.62C603.305 287.94 602.525 283.859 598.973 283.155C595.421 282.451 594.666 285.555 591.894 286.356C587.231 287.628 588.935 283.067 588.842 280.754C588.757 277.762 586.646 275.193 584.95 272.769Z" fill="black" fill-opacity="0.5"/>
<path opacity="0.1" d="M588.95 267.096C589.388 267.764 589.866 268.408 590.383 269.024C591.368 270.189 592.469 271.26 593.672 272.225C594.384 272.809 595.122 273.353 595.894 273.873C597.323 274.819 598.825 275.664 600.387 276.402C604.939 278.57 609.874 279.93 614.799 281.267L624.413 283.907C625.592 284.707 627.753 286.268 630.136 287.844C630.498 286.557 630.739 285.242 630.856 283.915V283.915C630.928 283.012 630.928 282.106 630.856 281.203C630.432 275.858 627.211 270.985 623.082 267.304C618.953 263.623 613.951 260.958 609 258.334C607.387 257.382 605.641 256.646 603.812 256.149C602.007 255.801 600.156 255.729 598.327 255.933C595.919 256.031 593.552 256.555 591.349 257.478C590.448 257.889 589.618 258.429 588.891 259.078C588.35 259.833 587.935 260.661 587.661 261.535C587.043 263.447 587.873 265.447 588.95 267.096Z" fill="black" fill-opacity="0.5"/>
<path d="M583.95 267.488C584.388 268.153 584.866 268.795 585.383 269.408C586.363 270.576 587.465 271.648 588.672 272.609C589.377 273.201 590.116 273.757 590.885 274.273C592.317 275.219 593.818 276.066 595.378 276.809C599.931 278.97 604.865 280.33 609.791 281.674L619.404 284.307C622.796 286.708 633.986 294.557 635.868 293.573C638.098 292.421 625.907 284.275 625.907 284.275L625.347 284.675C627.136 283.619 628.069 281.162 628.467 279.074C629.179 275.273 629.519 271.328 628.569 267.568C627.62 263.807 625.22 260.246 621.575 258.486C619.964 257.685 618.006 257.173 616.836 255.965C616.659 255.788 616.505 255.592 616.378 255.381C616.306 255.282 616.244 255.178 616.191 255.069C616.065 254.738 615.894 254.423 615.683 254.133C615.013 253.405 613.801 253.621 612.792 253.741C612.682 253.741 612.58 253.741 612.47 253.741C612.286 253.753 612.102 253.753 611.918 253.741C608.307 253.821 604.806 251.924 601.152 251.924C597.142 251.924 593.733 254.109 590.207 255.597C589.495 255.901 588.816 256.181 588.18 256.461C585.637 257.581 583.721 258.774 582.67 261.958C582.042 263.831 582.873 265.831 583.95 267.488Z" fill="#A02222" fill-opacity="0.8"/>
<path opacity="0.1" d="M616.902 252.757C616.758 253.002 616.682 253.277 616.681 253.557C616.681 253.79 616.735 254.02 616.839 254.232C616.943 254.443 617.094 254.631 617.283 254.781C617.73 255.077 618.255 255.252 618.801 255.285C619.194 255.335 619.59 255.364 619.988 255.373C620.521 255.416 621.058 255.331 621.547 255.125C621.643 255.077 621.734 255.02 621.819 254.957C621.642 254.78 621.488 254.584 621.361 254.373C621.268 254.437 621.174 254.421 620.818 254.373C620.158 254.337 619.504 254.233 618.868 254.061C618.606 253.992 618.359 253.878 618.139 253.725C617.81 253.467 617.571 253.121 617.453 252.733L616.902 252.757Z" fill="black" fill-opacity="0.5"/>
<path opacity="0.1" d="M630.644 283.187C630.126 283.486 629.549 283.685 628.949 283.771C628.527 283.875 628.095 283.939 627.66 283.963C626.557 283.93 625.478 283.656 624.506 283.163" fill="black" fill-opacity="0.5"/>
<path opacity="0.1" d="M191.499 272.849H147.643V293.157H191.499V272.849Z" fill="#3F3D56" fill-opacity="0.8"/>
<path opacity="0.1" d="M191.499 329.861H147.643V350.169H191.499V329.861Z" fill="#3F3D56" fill-opacity="0.8"/>
<path opacity="0.1" d="M191.499 386.873H147.643V407.181H191.499V386.873Z" fill="#3F3D56" fill-opacity="0.8"/>
<path opacity="0.1" d="M191.499 443.885H147.643V464.193H191.499V443.885Z" fill="#3F3D56" fill-opacity="0.8"/>
<path d="M281.359 324.163C282.58 323.427 282.096 321.458 280.833 320.786C279.57 320.114 278.01 320.322 276.594 320.594C276.661 320.253 276.608 319.901 276.445 319.591C276.281 319.281 276.015 319.029 275.687 318.874V318.578C276.535 317.826 276.196 316.225 275.195 315.545C274.195 314.865 272.652 314.825 271.245 314.889C271.337 314.11 271.231 313.321 270.936 312.587C270.641 311.854 270.166 311.198 269.549 310.672C269.31 310.43 268.983 310.281 268.634 310.256C267.845 310.256 267.582 311.256 267.523 312C267.358 313.947 267.017 315.877 266.506 317.77L240.809 358.394C237.944 362.299 246.845 350.616 243.98 354.521C242.519 356.67 240.813 358.66 238.893 360.458C237.171 361.905 235.245 363.119 233.171 364.067C231.785 364.108 230.421 363.745 229.262 363.027C227.81 362.063 226.541 360.876 225.507 359.514C223.266 356.824 221.24 353.981 219.445 351.008C218.817 350.069 218.348 349.044 218.055 347.968C217.665 346.288 218.055 344.455 217.342 342.879C217.049 342.286 216.679 341.729 216.24 341.222L214.468 338.99C214.464 338.958 214.464 338.926 214.468 338.894C214.265 335.589 211.433 333.053 208.788 330.892C206.533 329.036 204.092 327.1 201.158 326.739C199.564 326.547 197.937 326.835 196.343 326.643C195.046 326.491 193.799 326.027 192.528 325.843C191.285 325.687 190.029 325.663 188.781 325.771L188.246 325.315C190.992 324.217 193.326 322.366 194.944 320.002C196.173 318.13 196.834 316.001 197.971 314.057C199.352 311.712 201.362 309.776 202.964 307.527C206.66 302.19 207.339 295.325 205.846 289.124C204.354 282.922 200.836 277.265 196.707 272.224C188.764 262.526 175.436 258.925 162.889 260.83C162.041 260.95 161.193 261.102 160.388 261.27C158.278 261.69 156.218 262.312 154.242 263.126C151.565 264.153 149.243 265.863 147.536 268.063C147.068 268.704 146.676 269.391 146.366 270.112C146.132 270.657 145.942 271.219 145.798 271.792C145.411 273.527 145.308 275.308 145.492 277.073C145.543 277.673 145.611 278.281 145.687 278.881C145.687 279.186 145.764 279.482 145.806 279.786C145.891 280.386 145.984 280.994 146.069 281.594C146.205 282.498 146.332 283.402 146.425 284.291C146.497 284.923 146.531 285.559 146.527 286.195C146.527 286.355 146.527 286.507 146.527 286.667C146.5 287.139 146.427 287.608 146.306 288.067C146.238 288.317 146.156 288.562 146.06 288.804C145.762 289.524 145.369 290.207 144.891 290.836C144.242 291.673 143.542 292.475 142.797 293.236L142.076 294.037L141.364 294.837C140.417 295.877 139.553 296.981 138.778 298.141C138.395 298.723 138.052 299.327 137.752 299.95C137.53 300.424 137.337 300.91 137.176 301.406C136.956 302.065 136.805 302.743 136.726 303.431C136.726 303.607 136.684 303.775 136.675 303.951C136.654 304.292 136.654 304.634 136.675 304.975C136.689 305.313 136.729 305.65 136.794 305.983C136.912 306.654 137.123 307.308 137.422 307.928C137.422 308.016 137.515 308.104 137.557 308.184C137.6 308.264 137.65 308.352 137.693 308.44C137.735 308.528 137.871 308.784 137.956 308.952C138.078 309.208 138.169 309.476 138.227 309.752C138.227 309.84 138.227 309.936 138.227 310.032C138.235 310.13 138.235 310.229 138.227 310.328C138.096 311.112 137.661 311.822 137.006 312.32C136.845 312.464 136.667 312.6 136.497 312.737L136.235 312.937L135.701 313.337L135.183 313.729C134.733 314.086 134.316 314.48 133.937 314.905C129.277 314.665 124.606 315.097 120.084 316.185C118.473 316.677 116.799 316.962 115.108 317.033C114.702 317.069 114.293 317.01 113.917 316.86C113.542 316.711 113.211 316.476 112.954 316.177C112.677 315.593 112.6 314.941 112.734 314.313C112.961 311.697 112.507 309.068 111.411 306.655C111.144 305.948 110.685 305.319 110.08 304.831C109.773 304.597 109.396 304.461 109.002 304.441C108.608 304.421 108.217 304.518 107.885 304.719C109.282 308.994 109.082 313.593 107.317 317.746C106.404 319.701 105.339 321.589 104.129 323.395C102.238 326.427 101.179 329.9 99.5 333.045C101.382 339.054 100.967 345.471 101.95 351.665C102.866 357.442 105.002 362.963 107.147 368.468C108.766 372.605 110.538 376.91 114.031 379.823C115.16 380.889 116.674 381.512 118.27 381.567C119.465 381.431 120.608 381.025 121.602 380.383C122.626 379.854 123.57 379.197 124.408 378.43C124.73 378.114 125.014 377.765 125.256 377.39C125.354 377.915 125.564 378.416 125.875 378.862C127.892 374.757 130.114 370.741 132.487 366.812C133.196 366.455 133.862 366.026 134.471 365.532C134.514 365.668 134.548 365.812 134.581 365.956C134.48 366.332 134.378 366.716 134.268 367.092C134.158 367.468 134.039 367.812 133.92 368.164C133.801 368.516 133.751 368.692 133.657 368.964C133.564 369.236 133.437 369.588 133.318 369.9L132.911 370.917C132.81 371.157 132.716 371.397 132.606 371.637C132.352 372.221 132.089 372.805 131.801 373.381C132.028 373.487 132.264 373.578 132.504 373.653L132.665 373.701C132.88 373.763 133.098 373.814 133.318 373.853H133.556L134.047 373.901H134.234C134.319 373.901 134.403 373.901 134.488 373.901H134.819C135.411 373.868 135.997 373.772 136.565 373.613C136.675 374.029 136.777 374.453 136.887 374.869C137.713 377.67 138.246 380.541 138.481 383.439C138.634 386.72 138.032 390.049 138.693 393.281C139.041 394.954 139.728 396.562 139.973 398.258C140.14 399.857 140.109 401.468 139.88 403.059C139.496 406.895 139.111 410.73 138.727 414.566C138.691 415.973 138.336 417.356 137.684 418.623C137.108 419.559 136.184 420.631 136.76 421.559C137.715 421.316 138.686 421.14 139.668 421.031C139.312 422.255 138.99 423.48 138.685 424.712C138.386 425.631 138.308 426.601 138.456 427.552C138.659 428.441 139.244 429.241 139.304 430.153C139.448 431.553 138.456 432.794 137.845 434.098C136.387 437.427 137.939 441.179 139.482 444.5L144.043 454.27C145.286 456.937 146.535 459.605 147.79 462.272C148.901 464.672 150.02 467.073 151.088 469.473C155.973 480.428 159.963 491.719 163.025 503.248C163.122 503.77 163.33 504.268 163.635 504.713C164.271 505.513 165.415 505.745 166.348 506.233C169.163 507.689 169.485 512.05 166.908 513.858C167.442 519.732 162.779 525.405 160.38 530.846C154.852 543.353 155.852 557.444 153.953 570.854L156.098 569.67C156.351 569.781 156.586 569.927 156.793 570.102C156.743 570.35 156.692 570.598 156.624 570.854C156.335 571.996 155.87 573.09 155.242 574.103C153.996 576.135 152.088 577.936 151.8 580.264C151.622 581.665 152.08 583.073 152.071 584.489C152.071 584.617 152.071 584.745 152.071 584.881C151.885 584.705 151.597 584.721 151.156 585.041C150.486 585.713 150.021 586.542 149.808 587.442C149.435 588.442 149.138 589.466 148.841 590.49L147.798 594.107C147.233 596.278 146.484 598.402 145.56 600.461C144.766 601.843 144.102 603.289 143.576 604.781C143.278 605.995 143.161 607.242 143.229 608.486C143.213 609.674 143.396 610.857 143.771 611.991C144.267 613.112 145.005 614.122 145.937 614.959C146.87 615.795 147.978 616.439 149.189 616.848C151.612 617.65 154.151 618.1 156.717 618.184C157.374 618.264 158.041 618.248 158.693 618.136C159.395 617.947 160.049 617.626 160.617 617.192C164.101 614.792 165.907 610.311 166.221 606.23C166.133 605.39 165.974 604.557 165.746 603.741C165.958 599.3 165.271 594.835 165.636 590.41C165.704 590.915 165.789 591.411 165.865 591.915C166.147 593.568 166.43 595.225 166.713 596.884C166.661 596.708 166.562 596.548 166.424 596.42C165.815 598.264 165.71 600.224 166.119 602.117C166.515 604 167.082 605.847 167.815 607.638L168.942 610.607C169.214 611.5 169.669 612.335 170.282 613.063C171.274 614.087 175.513 613.295 176.937 613.631C180.031 614.478 183.216 614.99 186.432 615.16C186.864 615.207 184.571 616.3 184.957 616.112C185.151 615.972 185.338 615.822 185.517 615.664C185.803 615.467 186.109 615.298 186.432 615.16C187.813 614.476 188.856 613.31 189.34 611.911C189.573 611.214 189.646 610.478 189.554 609.752C189.461 609.026 189.207 608.328 188.806 607.702C188.429 607.172 187.997 606.679 187.517 606.23L181.863 600.573C181 599.596 180.074 598.672 179.09 597.804C178.975 597.691 178.832 597.605 178.674 597.555C178.516 597.505 178.348 597.491 178.183 597.516C176.649 593.899 176.844 589.658 177.115 585.689C177.191 584.505 177.878 582.041 178.158 580.024C179.247 579.689 180.264 579.171 181.159 578.496C181.998 577.902 182.596 577.055 182.854 576.095C185.703 562.333 190.323 548.994 194.639 535.583C195.063 534.263 195.487 532.934 195.902 531.582L196.428 529.886C196.563 529.422 196.716 528.958 196.851 528.494C197.089 527.693 197.318 526.933 197.538 526.149C197.606 525.941 197.665 525.725 197.725 525.517C197.729 525.474 197.729 525.431 197.725 525.389C198.004 524.429 198.267 523.468 198.53 522.508L198.835 521.404C199.166 520.18 199.48 518.948 199.793 517.723C199.836 517.555 199.878 517.379 199.912 517.203C200.018 516.769 199.985 516.315 199.819 515.899C199.729 515.737 199.618 515.586 199.488 515.451C199.403 515.355 199.302 515.251 199.2 515.155L198.886 514.827C198.624 514.525 198.428 514.176 198.31 513.802C198.31 513.426 198.31 513.05 198.31 512.682C198.31 512.314 198.259 511.882 198.233 511.49C198.322 510.965 198.446 510.447 198.606 509.938C198.7 509.634 198.81 509.33 198.912 509.025C199.013 508.721 199.157 508.225 199.293 507.889C199.791 507.358 200.06 506.67 200.048 505.961C200.556 504.753 201.116 503.56 201.743 502.408C202.504 501.231 203.019 499.927 203.261 498.567C203.252 497.337 203.087 496.112 202.769 494.919C201.921 489.845 204.414 484.892 206.262 480.067C207.616 476.524 208.645 472.878 209.339 469.169C209.882 466.313 210.255 463.328 211.883 460.855C212.414 460.165 212.868 459.425 213.239 458.647C213.488 457.828 213.611 456.979 213.604 456.126C213.803 452.676 214.686 449.292 216.206 446.148C216.55 445.545 216.78 444.89 216.885 444.212C216.889 444.167 216.889 444.121 216.885 444.076V443.884L217.309 443.828C218.029 439.523 218.75 434.722 218.258 430.393C217.608 425.372 215.018 420.753 210.984 417.422H211.069C212.493 416.742 213.129 415.118 213.146 413.614C213.152 412.5 212.893 411.4 212.386 410.394C211.88 409.388 211.14 408.503 210.221 407.804C209.814 407.564 209.473 407.235 209.229 406.844C209.092 406.436 209.051 406.004 209.11 405.58C209.111 404.3 208.708 403.049 207.953 401.986C207.199 400.923 206.126 400.096 204.872 399.611C204.612 399.543 204.376 399.414 204.185 399.235C203.981 398.889 203.921 398.484 204.015 398.098C204.096 396.825 203.806 395.556 203.177 394.428C202.548 393.299 201.603 392.355 200.446 391.697C200.915 390.043 200.967 388.308 200.599 386.632C200.09 385.032 198.462 383.535 196.673 383.751C198.132 379.999 196.063 375.822 196.614 371.861C196.851 370.164 197.572 368.532 197.665 366.82C197.75 365.267 197.335 363.619 198.14 362.227C198.945 360.835 200.845 359.826 200.353 358.354C200.141 357.714 199.505 357.282 199.234 356.658C198.962 356.034 200.082 355.057 200.7 355.441C200.98 355.241 201.26 355.025 201.548 354.809C201.639 355.604 201.806 356.388 202.048 357.154C202.447 358.434 203.074 359.642 203.49 360.915C204.134 362.859 204.337 364.963 205.372 366.748C207.067 369.596 210.518 371.005 212.892 373.373C214.282 374.757 215.274 376.462 216.707 377.814C217.796 378.77 218.99 379.615 220.267 380.335L227.897 385.008C228.688 385.552 229.571 385.966 230.509 386.232C231.104 386.339 231.716 386.331 232.308 386.208C232.899 386.084 233.458 385.849 233.95 385.515C234.442 385.181 234.857 384.755 235.169 384.265C235.481 383.775 235.684 383.23 235.765 382.663C235.059 382.435 234.416 382.06 233.883 381.567C233.993 381.567 234.103 381.567 234.205 381.519C236.025 381.07 237.709 380.226 239.122 379.054C244.565 374.966 248.448 369.38 252.297 363.891C256.298 358.138 266.506 340.654 266.506 340.654L275.577 336.734C278.026 335.393 280.2 333.647 281.995 331.58C282.97 330.465 283.535 329.08 283.606 327.636C283.666 326.907 283.481 326.18 283.078 325.556C282.674 324.933 282.073 324.445 281.359 324.163ZM121.076 338.958C120.703 341.198 120.248 343.428 119.711 345.647C119.113 348.206 118.351 350.729 117.431 353.201C117.329 353.457 117.227 353.721 117.134 354.001C116.854 353.521 116.583 353.041 116.337 352.553C115.71 351.329 115.21 350.048 114.709 348.776L111.522 340.654C111.106 339.606 110.674 338.382 111.31 337.414C111.766 336.821 112.401 336.371 113.132 336.125C115.377 335.157 117.721 334.406 120.127 333.885C120.889 333.739 121.642 333.552 122.382 333.325C121.766 335.161 121.329 337.047 121.076 338.958ZM124.603 328.828C124.498 328.648 124.444 328.445 124.444 328.24C124.444 328.034 124.498 327.832 124.603 327.652C124.847 327.422 125.135 327.237 125.451 327.108C125.535 327.061 125.614 327.007 125.688 326.947L124.603 328.828ZM131.216 320.026C130.274 320.756 129.421 321.583 128.672 322.491C127.859 323.504 127.128 324.574 126.485 325.691C126.59 325.257 126.56 324.804 126.399 324.385C126.238 323.967 125.953 323.601 125.578 323.331C125.278 323.181 124.994 323.005 124.73 322.803C124.454 322.455 124.335 322.017 124.4 321.586C124.465 321.156 124.709 320.767 125.078 320.506C125.834 320.03 126.713 319.753 127.621 319.706L131.428 319.178C131.377 319.41 131.301 319.706 131.216 319.986V320.026ZM166.941 581.353C167.007 580.281 166.933 579.206 166.721 578.152C167.196 578.152 167.662 578.152 168.128 578.112L166.941 581.353Z" fill="url(#paint0_linear)"/>
<path d="M162.564 262.735C155.943 263.735 148.575 266.143 146.04 272.001C144.133 276.426 145.608 281.411 146.1 286.172C146.285 287.426 146.237 288.702 145.956 289.94C145.413 291.949 143.904 293.573 142.454 295.126C140.43 297.098 138.73 299.344 137.41 301.791C136.215 304.295 135.841 307.28 137.071 309.793C137.493 310.434 137.781 311.145 137.919 311.889C137.995 313.489 136.223 314.546 134.867 315.586C129.898 319.467 130.11 326.54 130.068 332.637C129.977 345.088 127.029 357.372 121.429 368.645C123.523 369.65 125.89 370.035 128.219 369.749C130.549 369.464 132.733 368.521 134.485 367.045C133.795 369.823 132.8 372.526 131.518 375.11C135.757 377.031 140.793 373.878 142.904 369.941C145.015 366.004 145.26 361.427 146.761 357.25C148.262 353.074 150.924 349.441 152.06 345.248C152.441 343.856 152.67 342.375 153.569 341.247C154.327 340.411 155.219 339.693 156.214 339.119C160.573 336.134 163.834 331.937 165.539 327.116C170.694 328.188 175.942 329.269 181.19 328.821C186.437 328.372 191.795 326.124 194.568 321.891C195.797 320.019 196.458 317.89 197.594 315.954C198.976 313.609 200.985 311.673 202.588 309.433C206.276 304.103 206.962 297.246 205.462 291.029C203.961 284.811 200.46 279.186 196.331 274.145C188.421 264.431 175.103 260.83 162.564 262.735Z" fill="black"/>
<path d="M120.776 340.839C120.403 343.08 119.951 345.304 119.42 347.512C118.823 350.069 118.061 352.589 117.139 355.058C116.597 356.141 116.349 357.335 116.419 358.531C116.582 359.264 116.883 359.963 117.309 360.595C120.327 365.66 124.405 370.557 124.752 376.367C124.846 377.815 124.752 379.383 125.6 380.575C127.94 375.838 130.517 371.216 133.332 366.709C136.274 361.988 139.555 357.227 140.403 351.809C140.735 349.264 140.698 346.688 140.292 344.152C139.902 341.303 139.224 338.383 137.384 336.102C135.384 333.63 129.899 329.909 126.363 330.677C122.167 331.605 121.302 337.662 120.776 340.839Z" fill="#A02222" fill-opacity="0.8"/>
<path d="M227.428 368.165C231.387 366.637 235.423 365.02 238.559 362.284C240.484 360.495 242.19 358.509 243.646 356.362L252.972 343.664C255.176 340.655 257.448 337.486 257.923 333.854C263.384 328.427 266.68 321.379 267.249 313.913C267.316 313.169 267.579 312.193 268.368 312.177C268.716 312.201 269.042 312.347 269.283 312.585C269.9 313.111 270.375 313.767 270.67 314.501C270.965 315.234 271.071 316.023 270.979 316.802C272.335 316.738 273.819 316.706 274.921 317.45C276.023 318.194 276.32 320.059 275.133 320.651C275.533 320.763 275.875 321.01 276.094 321.345C276.313 321.68 276.394 322.08 276.32 322.467C277.744 322.195 279.304 321.979 280.559 322.651C281.814 323.323 282.305 325.292 281.085 326.028C281.794 326.287 282.401 326.746 282.823 327.344C283.245 327.941 283.461 328.647 283.441 329.365C283.37 330.807 282.805 332.189 281.831 333.302C278.261 337.822 271.945 339.655 267.808 343.704C266.443 345.131 265.22 346.674 264.154 348.313L252.15 365.548C248.334 371.029 244.418 376.615 238.975 380.695C237.564 381.866 235.883 382.71 234.066 383.16C233.156 383.373 232.204 383.36 231.301 383.123C230.398 382.886 229.575 382.433 228.912 381.808C227.708 380.519 227.538 378.671 227.411 376.959C227.097 374.086 227.632 371.085 227.428 368.165Z" fill="#EE8E9E" fill-opacity="0.8"/>
<path d="M187.251 607.663C187.728 608.113 188.157 608.606 188.532 609.135C188.933 609.758 189.19 610.456 189.283 611.18C189.377 611.905 189.305 612.64 189.074 613.336C188.585 614.732 187.543 615.896 186.166 616.585C185.844 616.72 185.537 616.886 185.251 617.081C185.072 617.239 184.885 617.388 184.691 617.529C184.304 617.716 183.869 617.794 183.436 617.753C180.221 617.576 177.037 617.063 173.941 616.224C172.517 615.888 171.016 615.504 170.024 614.488C169.412 613.76 168.957 612.925 168.685 612.032L167.557 609.071C166.83 607.281 166.263 605.437 165.862 603.558C165.452 601.668 165.557 599.71 166.167 597.869C166.452 598.194 166.6 598.607 166.582 599.029C166.919 601.022 167.746 602.914 168.998 604.55C169.381 605.187 169.925 605.725 170.582 606.114C171.239 606.504 171.988 606.733 172.763 606.783C174.743 607.189 176.757 607.432 178.782 607.511C179.069 607.543 179.359 607.51 179.63 607.415C179.959 607.241 180.205 606.955 180.316 606.614C180.604 605.859 180.604 605.033 180.316 604.278C179.782 602.838 178.282 601.877 177.561 600.517C177.036 599.501 177.773 598.389 178.858 599.245C179.84 600.112 180.766 601.034 181.631 602.006L187.251 607.663Z" fill="#A02222"/>
<path d="M176.824 587.146C176.501 591.947 176.273 597.06 179.045 601.069C180.037 602.51 181.368 603.718 182.504 605.07C183.151 605.742 183.58 606.575 183.741 607.471C183.911 609.223 182.165 610.719 180.35 611.039C178.536 611.359 176.654 610.831 174.882 610.295C173.209 609.898 171.634 609.197 170.245 608.231C167.837 606.31 167.201 603.11 166.718 600.173L165.59 593.348C165.253 591.712 165.116 590.044 165.183 588.379C165.414 586.54 165.89 584.736 166.599 583.009L168.456 577.88C168.587 577.382 168.884 576.936 169.304 576.608C169.734 576.39 170.226 576.303 170.711 576.36C172.491 576.448 176.959 577.056 177.824 578.833C178.536 580.385 176.951 585.306 176.824 587.146Z" fill="#EE8E9E" fill-opacity="0.8"/>
<path opacity="0.05" d="M176.824 587.146C176.501 591.947 176.273 597.06 179.045 601.069C180.037 602.51 181.368 603.718 182.504 605.07C183.151 605.742 183.58 606.575 183.741 607.471C183.911 609.223 182.165 610.719 180.35 611.039C178.536 611.359 176.654 610.831 174.882 610.295C173.209 609.898 171.634 609.197 170.245 608.231C167.837 606.31 167.201 603.11 166.718 600.173L165.59 593.348C165.253 591.712 165.116 590.044 165.183 588.379C165.414 586.54 165.89 584.736 166.599 583.009L168.456 577.88C168.587 577.382 168.884 576.936 169.304 576.608C169.734 576.39 170.226 576.303 170.711 576.36C172.491 576.448 176.959 577.056 177.824 578.833C178.536 580.385 176.951 585.306 176.824 587.146Z" fill="black" fill-opacity="0.5"/>
<path d="M216.593 445.693C216.597 445.738 216.597 445.784 216.593 445.829C216.486 446.506 216.257 447.161 215.915 447.765C214.398 450.904 213.515 454.283 213.312 457.727C213.32 458.577 213.197 459.424 212.948 460.24C212.577 461.018 212.122 461.758 211.591 462.448C209.981 464.921 209.608 467.906 209.048 470.754C208.359 474.459 207.329 478.1 205.97 481.636C204.131 486.437 201.647 491.406 202.486 496.472C202.805 497.662 202.97 498.884 202.978 500.112C202.736 501.472 202.221 502.776 201.46 503.953C200.833 505.105 200.273 506.29 199.765 507.498C199.256 508.706 198.739 510.13 198.323 511.499C197.823 513.099 197.476 515.067 198.637 516.38C198.99 516.706 199.302 517.068 199.57 517.46C199.785 518.057 199.785 518.704 199.57 519.3C198.92 521.904 198.219 524.496 197.467 527.078C196.891 529.11 196.28 531.127 195.644 533.143C190.999 547.882 185.734 562.469 182.605 577.568C182.156 579.737 179.214 581.297 176.917 581.769C175.767 581.999 174.575 581.969 173.44 581.683C172.304 581.396 171.256 580.861 170.38 580.121L169.931 579.697C167.532 577.296 167.184 573.52 167.388 570.143C168.235 554.612 176.484 540.393 180.427 525.294C181.85 519.835 182.701 514.258 182.97 508.642C183.894 489.886 184.259 470.074 178.646 452.062C177.476 448.318 176.103 444.061 178.189 440.724C179.52 438.595 181.978 437.347 184.403 436.435C189.363 434.604 194.66 433.726 199.984 433.854C205.308 433.982 210.552 435.112 215.406 437.179C215.414 437.556 215.399 437.932 215.364 438.307C215.148 440.052 215.36 441.821 215.983 443.477C216.325 444.175 216.532 444.926 216.593 445.693Z" fill="#51545C"/>
<path d="M148.558 591.939L147.516 595.548C146.951 597.719 146.203 599.844 145.277 601.902C144.485 603.282 143.821 604.725 143.294 606.214C142.998 607.426 142.884 608.67 142.954 609.911C142.934 611.099 143.117 612.283 143.497 613.416C143.991 614.535 144.727 615.545 145.658 616.38C146.59 617.215 147.696 617.857 148.906 618.265C151.329 619.067 153.868 619.517 156.434 619.601C157.091 619.681 157.758 619.665 158.41 619.553C159.109 619.362 159.76 619.041 160.326 618.609C163.81 616.209 165.616 611.736 165.929 607.663C165.836 606.715 165.637 605.779 165.336 604.87C165.065 604.526 162.428 605.934 163.556 607.103C165.251 608.847 160.334 607.943 157.85 607.799C156.765 607.703 155.688 607.534 154.628 607.295L150.601 606.494C149.287 606.222 147.77 605.798 147.304 604.606C146.837 603.414 147.855 601.998 148.652 600.845C150.754 597.781 151.288 594.02 151.78 590.395C151.873 589.683 152.814 585.074 150.873 586.506C150.203 587.178 149.738 588.007 149.525 588.907C149.152 589.899 148.855 590.923 148.558 591.939Z" fill="#A02222"/>
<path opacity="0.05" d="M198.646 516.356C197.501 515.043 197.84 513.107 198.332 511.475C198.518 510.866 198.722 510.258 198.934 509.658L183.14 504.617C183.08 505.953 183.021 507.29 182.953 508.618C182.684 514.236 181.832 519.816 180.41 525.278C176.468 540.369 168.176 554.588 167.371 570.087C167.184 573.664 167.591 577.656 170.389 580.065C171.264 580.806 172.312 581.341 173.448 581.628C174.584 581.914 175.775 581.944 176.925 581.713C179.214 581.241 182.165 579.681 182.614 577.504C185.742 562.413 190.999 547.826 195.653 533.079C197.105 528.502 198.414 523.888 199.578 519.236C199.794 518.642 199.794 517.998 199.578 517.404C199.314 517.02 199.001 516.668 198.646 516.356V516.356Z" fill="black" fill-opacity="0.5"/>
<path d="M154.984 575.576C153.738 577.6 151.831 579.401 151.542 581.729C151.364 583.13 151.822 584.538 151.814 585.946C151.757 587.115 151.537 588.272 151.161 589.387C149.624 594.631 147.852 599.802 145.845 604.902C145.518 605.558 145.375 606.283 145.43 607.007C145.633 608.207 146.854 608.991 148.041 609.463C151.797 610.983 156.036 610.879 160.122 610.719C161.304 610.775 162.479 610.517 163.513 609.975C164.971 609.031 165.336 607.159 165.429 605.486C165.709 600.685 164.844 595.788 165.429 590.971C165.633 589.219 166.023 587.491 166.319 585.746C166.718 583.346 166.921 580.785 166.082 578.465C165.38 576.802 164.404 575.255 163.191 573.88C162.115 572.393 160.752 571.112 159.173 570.103C158.698 569.831 157.324 569.007 156.841 569.527C156.595 569.791 156.705 570.495 156.663 570.823C156.604 571.33 156.51 571.832 156.383 572.327C156.084 573.468 155.613 574.562 154.984 575.576V575.576Z" fill="#EE8E9E" fill-opacity="0.8"/>
<path opacity="0.05" d="M185.352 451.742C184.615 452.686 184.767 453.999 185.064 455.135C185.59 457.199 186.463 459.136 187.175 461.184C188.341 464.787 189.247 468.46 189.888 472.178C190.558 475.539 191.957 479.284 191.38 482.661C195.69 490.403 198.531 498.798 199.773 507.466C200.095 509.69 194.856 512.571 194.958 514.819C195.153 519.276 198.925 519.62 196.136 523.205C196.001 523.381 197.179 527.366 196.984 527.542C195.848 528.83 194.441 529.855 193.194 531.063C191.626 532.743 190.285 534.6 189.201 536.592C181.995 548.858 171.593 562.781 174.789 576.48C174.86 576.975 174.766 577.478 174.52 577.92C174.273 578.361 173.887 578.72 173.415 578.945C172.468 579.383 171.427 579.611 170.372 579.609H169.872C167.472 577.208 167.125 573.432 167.328 570.055C168.176 554.524 176.425 540.305 180.367 525.206C181.79 519.747 182.642 514.17 182.911 508.554C183.835 489.798 184.199 469.986 178.587 451.974C177.417 448.229 176.044 443.973 178.129 440.636C179.46 438.507 181.919 437.259 184.343 436.347C189.303 434.516 194.601 433.638 199.925 433.766C205.249 433.894 210.492 435.024 215.347 437.091C215.354 437.468 215.34 437.844 215.305 438.219C215.089 439.964 215.3 441.733 215.924 443.388C216.272 444.096 216.482 444.858 216.542 445.637C216.542 445.685 216.831 442.62 216.822 442.66C210.371 443.54 203.639 447.525 197.187 448.398C193.833 448.731 190.528 449.418 187.336 450.446C186.56 450.696 185.873 451.145 185.352 451.742Z" fill="black" fill-opacity="0.5"/>
<path d="M140.682 418.487C139.806 421.09 139.043 423.72 138.393 426.377C138.096 427.293 138.015 428.26 138.156 429.209C138.368 430.098 138.953 430.898 139.004 431.81C139.156 433.21 138.156 434.451 137.554 435.755C136.096 439.076 137.647 442.82 139.182 446.109L143.743 455.879L147.49 463.881C148.601 466.281 149.72 468.642 150.788 471.042C155.67 481.981 159.658 493.256 162.716 504.769C162.816 505.293 163.023 505.793 163.327 506.242C163.963 507.042 165.107 507.266 166.04 507.754C168.854 509.21 169.168 513.563 166.599 515.371C167.133 521.237 162.471 526.902 160.071 532.335C154.552 544.826 155.553 558.901 153.654 572.343L155.798 571.167C157.859 572.055 157.782 574.808 158.893 576.672C160.588 579.473 164.615 579.873 168.015 579.657C169.07 579.657 170.111 579.429 171.059 578.993C171.531 578.768 171.917 578.409 172.163 577.968C172.409 577.526 172.503 577.023 172.432 576.528C169.227 562.829 179.63 548.914 186.844 536.632C187.924 534.64 189.266 532.786 190.838 531.111C192.058 529.894 193.491 528.87 194.627 527.59C197.806 523.989 198.213 518.908 198.018 514.227C197.511 503.209 194.431 492.433 188.998 482.669C189.566 479.292 188.15 475.555 187.506 472.194C186.868 468.487 185.965 464.824 184.801 461.232C184.089 459.208 183.216 457.231 182.69 455.175C182.402 454.039 182.249 452.726 182.979 451.782C183.52 451.197 184.225 450.768 185.013 450.542C188.209 449.493 191.519 448.784 194.881 448.429L217.06 445.421C217.78 441.124 218.501 436.323 218.009 432.002C217.478 427.996 215.713 424.226 212.935 421.157C210.156 418.088 206.485 415.855 202.376 414.734C201.401 414.486 200.273 414.326 199.476 414.91C179.881 411.284 159.623 412.516 140.682 418.487Z" fill="#51545C"/>
<path d="M160.843 305.32C161.162 307.365 160.822 309.453 159.868 311.313C159.205 312.335 158.342 313.228 157.324 313.945C155.181 315.576 152.687 316.747 150.016 317.378C148.44 317.746 146.676 318.002 145.642 319.179C144.082 320.955 145.125 323.636 146.49 325.58C148.787 328.941 151.983 331.981 156.078 333.062C159.351 333.902 162.86 333.382 166.184 333.934C168.608 334.326 170.889 335.27 173.28 335.814C176.683 336.548 180.226 336.469 183.588 335.583C186.95 334.697 190.025 333.033 192.533 330.741C188.981 328.164 185.293 325.428 183.453 321.571C182.142 318.803 181.896 315.69 182.758 312.769C183.606 309.905 185.53 307.12 184.937 304.207C184.343 301.295 181.291 299.278 178.273 298.294C175.553 297.501 172.755 296.965 169.923 296.694C168.354 296.494 158.427 294.421 157.808 295.446C157.46 296.022 159.503 299.446 159.774 300.199C160.393 301.847 160.753 303.573 160.843 305.32Z" fill="#EE8E9E" fill-opacity="0.8"/>
<path d="M173.331 312.153C184.456 312.153 193.474 303.641 193.474 293.141C193.474 282.641 184.456 274.129 173.331 274.129C162.206 274.129 153.187 282.641 153.187 293.141C153.187 303.641 162.206 312.153 173.331 312.153Z" fill="#EE8E9E" fill-opacity="0.8"/>
<path d="M162.666 324.564L176.323 326.74C179.672 327.379 183.08 327.704 186.497 327.708C188.366 327.532 190.249 327.532 192.118 327.708C193.406 327.908 194.661 328.372 195.941 328.509C197.535 328.701 199.154 328.412 200.748 328.605C203.715 328.965 206.157 330.901 208.378 332.749C211.015 334.926 213.855 337.462 214.05 340.751C214.096 341.126 214.04 341.506 213.889 341.855C213.633 342.253 213.289 342.594 212.88 342.855C210.337 344.8 208.963 347.705 207.174 350.265C205.331 352.903 203.04 355.236 200.392 357.17C199.799 356.81 198.696 357.763 198.925 358.379C199.154 358.995 199.833 359.435 200.044 360.075C200.528 361.531 198.62 362.604 197.832 363.94C197.043 365.276 197.442 366.973 197.357 368.533C197.264 370.237 196.509 371.87 196.306 373.566C195.755 377.527 197.823 381.696 196.365 385.44C198.162 385.224 199.756 386.689 200.29 388.321C200.66 389.995 200.605 391.728 200.129 393.378C201.282 394.031 202.224 394.968 202.853 396.09C203.482 397.211 203.774 398.473 203.698 399.739C203.599 400.126 203.663 400.533 203.876 400.876C204.071 401.05 204.306 401.179 204.563 401.252C205.82 401.732 206.896 402.556 207.651 403.619C208.407 404.681 208.808 405.933 208.802 407.213C208.745 407.635 208.789 408.065 208.929 408.469C209.17 408.862 209.507 409.194 209.913 409.437C210.831 410.134 211.571 411.016 212.079 412.019C212.587 413.021 212.849 414.119 212.846 415.231C212.846 416.735 212.185 418.359 210.761 419.039C207.87 420.424 204.767 420.968 201.587 421.616C198.661 422.269 195.697 422.763 192.711 423.096C189.948 423.315 187.175 423.398 184.403 423.344L166.124 423.272C161.038 423.272 155.849 423.272 150.729 422.912C145.947 422.608 141.055 422.04 136.426 423.224C135.85 422.304 136.774 421.224 137.351 420.296C138.001 419.029 138.356 417.646 138.393 416.239L139.546 404.748C139.768 403.156 139.796 401.546 139.631 399.947C139.385 398.259 138.707 396.659 138.359 394.978C137.698 391.778 138.3 388.433 138.147 385.152C137.904 382.257 137.37 379.391 136.554 376.591L132.993 362.556C132.416 360.291 132.145 357.675 131.213 355.506C128.421 348.753 125.501 342.055 122.455 335.414C122.342 335.123 122.298 334.813 122.326 334.505C122.354 334.197 122.453 333.898 122.616 333.63L125.634 328.525C126.443 327.074 127.366 325.683 128.398 324.364C130.943 321.322 134.547 319.229 138.571 318.458C142.612 317.71 146.802 318.295 150.44 320.115C151.848 320.827 153.153 321.715 154.586 322.379C157.002 323.531 159.97 324.74 162.666 324.564Z" fill="#A02222" fill-opacity="0.8"/>
<path d="M211.159 337.086L215.924 343.072C216.358 343.581 216.728 344.137 217.026 344.728C217.746 346.328 217.348 348.137 217.738 349.817C218.032 350.89 218.501 351.913 219.128 352.85C220.92 355.82 222.943 358.66 225.181 361.347C226.216 362.709 227.489 363.894 228.946 364.852C229.678 365.332 230.512 365.656 231.39 365.803C232.268 365.949 233.17 365.914 234.032 365.7C233.299 365.959 232.694 366.467 232.337 367.125C230.522 370.509 230.387 374.518 231.158 378.247C231.382 379.521 231.829 380.752 232.481 381.888C233.147 383.028 234.224 383.905 235.516 384.36C235.432 384.926 235.228 385.469 234.915 385.958C234.602 386.447 234.188 386.87 233.696 387.203C233.205 387.536 232.647 387.772 232.056 387.895C231.465 388.018 230.854 388.027 230.26 387.921C229.323 387.652 228.441 387.238 227.648 386.697L220.018 382.032C218.747 381.307 217.557 380.462 216.466 379.511C215.042 378.167 214.041 376.462 212.651 375.078C210.286 372.678 206.81 371.301 205.131 368.461C204.088 366.676 203.902 364.572 203.258 362.628C202.834 361.355 202.215 360.155 201.808 358.875C200.553 354.93 201.46 350.585 203.376 346.872C205.292 343.16 208.336 340.239 211.159 337.086Z" fill="#A02222" fill-opacity="0.8"/>
<path d="M193.228 282.307C191.366 279.577 188.959 277.215 186.141 275.353C182.385 272.697 178.053 270.496 173.365 270.248C171.401 270.154 169.438 270.457 167.608 271.137C167.523 265.767 166.107 262.191 162.564 262.735C155.943 263.735 148.575 266.143 146.04 272.001C144.133 276.426 145.608 281.411 146.1 286.172C146.285 287.426 146.237 288.702 145.956 289.94C145.413 291.949 143.904 293.573 142.454 295.126C140.43 297.098 138.73 299.344 137.41 301.791C136.215 304.295 135.841 307.28 137.071 309.793C137.493 310.434 137.781 311.145 137.919 311.889C137.995 313.489 136.223 314.546 134.867 315.586C129.898 319.467 130.11 326.54 130.068 332.637C129.977 345.088 127.029 357.372 121.429 368.645C123.523 369.65 125.89 370.035 128.219 369.749C130.549 369.464 132.733 368.521 134.485 367.045C133.795 369.823 132.8 372.526 131.518 375.11C135.757 377.031 140.793 373.878 142.904 369.941C145.015 366.004 145.26 361.427 146.761 357.25C148.262 353.074 150.924 349.441 152.06 345.248C152.441 343.856 152.67 342.375 153.569 341.247C154.327 340.411 155.219 339.693 156.214 339.119C160.554 336.182 154.171 313.929 155.866 309.144C158.41 309.673 163.022 298.19 165.658 286.516C167.499 287.112 169.461 287.296 171.389 287.052C172.063 286.915 172.754 286.87 173.441 286.916C174.076 287.043 174.681 287.276 175.23 287.604C177.177 288.739 179.215 289.729 181.325 290.565C185.7 292.101 190.507 291.901 195.161 291.677C195.801 288.435 195.109 285.085 193.228 282.307Z" fill="black"/>
<g opacity="0.1">
<path opacity="0.1" d="M123.794 368.645C129.391 357.371 132.338 345.087 132.433 332.637C132.433 326.54 132.255 319.467 137.232 315.586C138.554 314.546 140.36 313.513 140.275 311.889C140.142 311.144 139.854 310.432 139.428 309.793C138.19 307.312 138.58 304.327 139.758 301.791C141.082 299.346 142.782 297.1 144.803 295.126C146.252 293.573 147.77 291.925 148.312 289.94C148.589 288.701 148.638 287.426 148.457 286.172C147.965 281.371 146.481 276.426 148.397 272.001C150.847 266.328 157.825 263.895 164.276 262.839C163.73 262.669 163.146 262.633 162.581 262.735C155.959 263.735 148.592 266.144 146.057 272.001C144.15 276.426 145.625 281.411 146.117 286.172C146.302 287.426 146.254 288.702 145.973 289.94C145.43 291.949 143.921 293.573 142.471 295.126C140.447 297.098 138.747 299.344 137.427 301.791C136.231 304.295 135.858 307.28 137.088 309.793C137.51 310.434 137.798 311.145 137.936 311.889C138.012 313.489 136.24 314.546 134.883 315.586C129.915 319.467 130.127 326.54 130.085 332.637C129.994 345.088 127.046 357.372 121.446 368.645C123.416 369.606 125.642 369.998 127.847 369.773C126.431 369.649 125.055 369.265 123.794 368.645Z" fill="black" fill-opacity="0.5"/>
<path opacity="0.1" d="M133.883 375.094C135.163 372.51 136.155 369.807 136.842 367.029C135.995 367.767 135.027 368.373 133.976 368.821C133.338 370.972 132.513 373.071 131.509 375.094C132.72 375.64 134.083 375.806 135.401 375.566C134.875 375.471 134.365 375.312 133.883 375.094Z" fill="black" fill-opacity="0.5"/>
<path opacity="0.1" d="M169.982 271.137C171.209 270.679 172.5 270.394 173.814 270.288L173.365 270.248C172.228 270.194 171.089 270.274 169.973 270.488C169.965 270.704 169.982 270.912 169.982 271.137Z" fill="black" fill-opacity="0.5"/>
<path opacity="0.1" d="M183.691 290.501C181.578 289.663 179.538 288.673 177.587 287.54C177.04 287.209 176.433 286.976 175.798 286.852C175.171 286.802 174.539 286.839 173.924 286.964C174.376 287.113 174.811 287.306 175.221 287.54C177.168 288.675 179.206 289.665 181.317 290.501C184.608 291.521 188.074 291.945 191.533 291.749C188.863 291.746 186.213 291.324 183.691 290.501Z" fill="black" fill-opacity="0.5"/>
<path opacity="0.1" d="M168.023 286.452C167.981 286.62 167.939 286.788 167.905 286.964C168.895 287.104 169.901 287.128 170.897 287.036C169.919 286.945 168.955 286.749 168.023 286.452V286.452Z" fill="black" fill-opacity="0.5"/>
</g>
<path d="M126.092 374.598C126.213 375.604 126.099 376.622 125.757 377.582C125.416 378.541 124.856 379.418 124.117 380.151C123.279 380.916 122.335 381.57 121.31 382.096C120.319 382.741 119.175 383.148 117.979 383.28C116.382 383.229 114.866 382.605 113.74 381.536C110.238 378.631 108.483 374.334 106.864 370.197C104.719 364.732 102.583 359.211 101.667 353.442C100.684 347.256 101.099 340.847 99.2256 334.846C100.921 331.701 101.955 328.236 103.846 325.204C105.053 323.399 106.118 321.514 107.034 319.563C108.789 315.415 108.975 310.822 107.559 306.56C107.892 306.355 108.284 306.255 108.681 306.275C109.077 306.295 109.457 306.434 109.764 306.672C110.37 307.156 110.829 307.782 111.095 308.488C112.184 310.897 112.635 313.52 112.409 316.13C112.279 316.762 112.362 317.417 112.646 318.002C112.906 318.297 113.238 318.529 113.612 318.678C113.987 318.827 114.394 318.889 114.799 318.859C116.489 318.784 118.159 318.496 119.767 318.002C124.768 316.803 129.946 316.4 135.087 316.81C136.122 316.838 137.139 317.073 138.071 317.498C138.536 317.717 138.926 318.054 139.199 318.471C139.471 318.888 139.615 319.369 139.614 319.859L127.364 321.547C126.455 321.591 125.576 321.868 124.82 322.347C124.634 322.472 124.476 322.632 124.356 322.816C124.236 323.001 124.157 323.206 124.124 323.42C124.091 323.634 124.104 323.852 124.162 324.061C124.221 324.27 124.323 324.465 124.464 324.636C124.729 324.838 125.013 325.017 125.312 325.172C125.614 325.403 125.856 325.697 126.019 326.031C126.181 326.364 126.261 326.729 126.251 327.096C126.241 327.463 126.142 327.823 125.962 328.148C125.781 328.474 125.524 328.756 125.21 328.973C124.891 329.098 124.603 329.283 124.363 329.517C123.862 330.149 124.532 330.989 124.736 331.757C124.829 332.321 124.739 332.898 124.477 333.413C124.215 333.927 123.794 334.354 123.269 334.638C122.213 335.181 121.066 335.546 119.878 335.718C117.471 336.239 115.127 336.993 112.883 337.966C112.151 338.207 111.515 338.654 111.061 339.247C110.459 340.215 110.857 341.439 111.273 342.487L114.46 350.601C114.961 351.873 115.461 353.146 116.088 354.362C116.936 355.962 117.902 357.451 118.733 359.027C119.478 360.509 120.143 362.026 120.725 363.572C122.336 367.733 125.549 370.213 126.092 374.598Z" fill="#EE8E9E" fill-opacity="0.8"/>
<path d="M267.732 319.963C267.051 320.44 266.559 321.119 266.333 321.891C266.286 322.049 266.292 322.217 266.35 322.371C266.408 322.526 266.514 322.66 266.655 322.755C266.84 322.811 267.038 322.811 267.223 322.755C268.129 322.592 268.976 322.212 269.682 321.651C269.401 321.793 269.151 321.983 268.944 322.211C268.845 322.33 268.784 322.473 268.768 322.623C268.751 322.773 268.78 322.924 268.851 323.059C268.95 323.174 269.072 323.268 269.21 323.337C269.349 323.406 269.5 323.447 269.656 323.46C270.838 323.663 272.053 323.608 273.209 323.299C272.667 323.479 272.164 323.751 271.725 324.1C271.51 324.28 271.339 324.502 271.225 324.751C271.111 324.999 271.056 325.269 271.064 325.54C271.061 325.643 271.084 325.746 271.129 325.84C271.175 325.935 271.242 326.018 271.326 326.084C271.446 326.15 271.579 326.194 271.716 326.212C272.807 326.392 273.923 326.392 275.014 326.212C275.299 326.2 275.575 326.12 275.818 325.98C276.061 325.84 276.263 325.645 276.405 325.412C276.461 325.154 276.461 324.887 276.406 324.629C276.351 324.37 276.241 324.125 276.083 323.908C275.486 322.719 275.195 321.414 275.235 320.099C275.271 319.827 275.23 319.551 275.116 319.299C274.932 319.062 274.674 318.885 274.378 318.794C273.209 318.306 271.632 317.634 270.326 318.034C269.334 318.508 268.452 319.164 267.732 319.963V319.963Z" fill="#EE8E9E" fill-opacity="0.8"/>
<path d="M294.564 294.365L254.108 315.026C253.972 315.098 253.859 315.204 253.783 315.333C253.706 315.462 253.669 315.608 253.675 315.755C253.682 315.902 253.731 316.045 253.818 316.168C253.904 316.291 254.025 316.388 254.167 316.45L261.068 318.907C261.268 318.977 261.451 319.084 261.606 319.221C261.762 319.359 261.887 319.524 261.975 319.707L267.342 330.109C267.444 330.573 268.342 330.693 268.351 330.229L267.503 321.611C267.552 320.974 267.81 320.367 268.24 319.875L289.215 300.479C289.273 300.422 289.346 300.381 289.426 300.359C289.506 300.336 289.591 300.334 289.672 300.351C289.751 300.369 289.824 300.405 289.884 300.457C289.944 300.509 289.989 300.574 290.015 300.647C290.042 300.719 290.048 300.797 290.034 300.872C290.02 300.948 289.986 301.019 289.935 301.079L271.886 322.003C271.503 322.513 271.258 323.104 271.174 323.724L270.097 331.165C270.182 331.813 270.724 332.061 271.157 331.477L275.057 327.164C275.187 327.004 275.376 326.896 275.586 326.862C275.797 326.828 276.014 326.87 276.193 326.98L286.239 333.886C286.352 333.953 286.479 333.994 286.612 334.005C286.744 334.017 286.878 333.999 287.001 333.953C287.125 333.908 287.236 333.835 287.324 333.741C287.413 333.647 287.477 333.535 287.511 333.414L295.768 295.23C295.794 295.086 295.779 294.939 295.723 294.803C295.667 294.668 295.573 294.549 295.45 294.46C295.328 294.371 295.183 294.315 295.03 294.299C294.877 294.282 294.722 294.305 294.581 294.365H294.564Z" fill="#A02222" fill-opacity="0.8"/>
<path d="M754.489 652C782.334 652 804.907 647.902 804.907 642.846C804.907 637.79 782.334 633.692 754.489 633.692C726.644 633.692 704.071 637.79 704.071 642.846C704.071 647.902 726.644 652 754.489 652Z" fill="#A02222" fill-opacity="0.8"/>
<path d="M753.65 646.207C756.89 646.207 759.516 642.961 759.516 638.957C759.516 634.954 756.89 631.708 753.65 631.708C750.41 631.708 747.783 634.954 747.783 638.957C747.783 642.961 750.41 646.207 753.65 646.207Z" fill="#3F3D56" fill-opacity="0.8"/>
<path d="M753.65 637.349C756.89 637.349 759.516 634.103 759.516 630.099C759.516 626.096 756.89 622.85 753.65 622.85C750.41 622.85 747.783 626.096 747.783 630.099C747.783 634.103 750.41 637.349 753.65 637.349Z" fill="#3F3D56" fill-opacity="0.8"/>
<path d="M753.65 628.483C756.89 628.483 759.516 625.237 759.516 621.234C759.516 617.23 756.89 613.984 753.65 613.984C750.41 613.984 747.783 617.23 747.783 621.234C747.783 625.237 750.41 628.483 753.65 628.483Z" fill="#3F3D56" fill-opacity="0.8"/>
<path d="M753.65 619.617C756.89 619.617 759.516 616.371 759.516 612.368C759.516 608.364 756.89 605.118 753.65 605.118C750.41 605.118 747.783 608.364 747.783 612.368C747.783 616.371 750.41 619.617 753.65 619.617Z" fill="#3F3D56" fill-opacity="0.8"/>
<path d="M753.65 610.751C756.89 610.751 759.516 607.506 759.516 603.502C759.516 599.498 756.89 596.252 753.65 596.252C750.41 596.252 747.783 599.498 747.783 603.502C747.783 607.506 750.41 610.751 753.65 610.751Z" fill="#3F3D56" fill-opacity="0.8"/>
<path d="M753.65 601.894C756.89 601.894 759.516 598.648 759.516 594.644C759.516 590.64 756.89 587.395 753.65 587.395C750.41 587.395 747.783 590.64 747.783 594.644C747.783 598.648 750.41 601.894 753.65 601.894Z" fill="#3F3D56" fill-opacity="0.8"/>
<path d="M753.65 593.028C756.89 593.028 759.516 589.782 759.516 585.778C759.516 581.774 756.89 578.529 753.65 578.529C750.41 578.529 747.783 581.774 747.783 585.778C747.783 589.782 750.41 593.028 753.65 593.028Z" fill="#3F3D56" fill-opacity="0.8"/>
<path d="M775.616 525.118C776.414 524.153 777.145 523.14 777.803 522.085L762.374 519.684L779.058 519.804C780.656 516.517 781.527 512.958 781.619 509.342C781.711 505.727 781.021 502.132 779.592 498.776L757.219 509.73L777.854 495.415C775.924 492.256 773.324 489.506 770.218 487.337C767.111 485.168 763.564 483.626 759.799 482.808C756.033 481.991 752.129 481.914 748.33 482.584C744.532 483.253 740.92 484.655 737.721 486.7C734.522 488.746 731.804 491.391 729.736 494.473C727.669 497.554 726.296 501.004 725.704 504.608C725.112 508.212 725.313 511.893 726.296 515.42C727.278 518.947 729.019 522.246 731.412 525.11C730.171 526.601 729.097 528.21 728.208 529.911L748.232 539.729L726.885 532.967C725.386 537.148 725.015 541.616 725.806 545.967C726.596 550.317 728.523 554.413 731.412 557.884C728.152 561.799 726.125 566.5 725.562 571.45C724.999 576.4 725.923 581.4 728.229 585.878C730.534 590.356 734.128 594.132 738.599 596.773C743.07 599.415 748.239 600.815 753.514 600.815C758.789 600.815 763.958 599.415 768.429 596.773C772.901 594.132 776.494 590.356 778.8 585.878C781.105 581.4 782.029 576.4 781.466 571.45C780.903 566.5 778.876 561.799 775.616 557.884C779.507 553.205 781.623 547.429 781.623 541.481C781.623 535.533 779.507 529.756 775.616 525.078V525.118Z" fill="#A02222" fill-opacity="0.8"/>
<path opacity="0.1" d="M725.41 541.529C725.398 547.48 727.516 553.26 731.421 557.932C728.161 561.847 726.134 566.548 725.571 571.498C725.008 576.448 725.932 581.448 728.237 585.926C730.542 590.404 734.136 594.18 738.608 596.821C743.079 599.463 748.248 600.863 753.523 600.863C758.798 600.863 763.966 599.463 768.438 596.821C772.909 594.18 776.503 590.404 778.808 585.926C781.114 581.448 782.038 576.448 781.475 571.498C780.912 566.548 778.884 561.847 775.624 557.932C779.389 553.419 725.41 538.552 725.41 541.529Z" fill="black" fill-opacity="0.5"/>
<path d="M280.55 623.57C296.446 623.57 309.333 621.231 309.333 618.345C309.333 615.459 296.446 613.12 280.55 613.12C264.654 613.12 251.768 615.459 251.768 618.345C251.768 621.231 264.654 623.57 280.55 623.57Z" fill="#A02222" fill-opacity="0.8"/>
<path d="M281.034 620.257C282.883 620.257 284.382 618.405 284.382 616.12C284.382 613.836 282.883 611.984 281.034 611.984C279.184 611.984 277.685 613.836 277.685 616.12C277.685 618.405 279.184 620.257 281.034 620.257Z" fill="#3F3D56" fill-opacity="0.8"/>
<path d="M281.034 615.2C282.883 615.2 284.382 613.348 284.382 611.063C284.382 608.779 282.883 606.927 281.034 606.927C279.184 606.927 277.685 608.779 277.685 611.063C277.685 613.348 279.184 615.2 281.034 615.2Z" fill="#3F3D56" fill-opacity="0.8"/>
<path d="M281.034 610.135C282.883 610.135 284.382 608.283 284.382 605.998C284.382 603.714 282.883 601.862 281.034 601.862C279.184 601.862 277.685 603.714 277.685 605.998C277.685 608.283 279.184 610.135 281.034 610.135Z" fill="#3F3D56" fill-opacity="0.8"/>
<path d="M281.034 605.078C282.883 605.078 284.382 603.226 284.382 600.941C284.382 598.657 282.883 596.804 281.034 596.804C279.184 596.804 277.685 598.657 277.685 600.941C277.685 603.226 279.184 605.078 281.034 605.078Z" fill="#3F3D56" fill-opacity="0.8"/>
<path d="M281.034 600.013C282.883 600.013 284.382 598.161 284.382 595.876C284.382 593.592 282.883 591.74 281.034 591.74C279.184 591.74 277.685 593.592 277.685 595.876C277.685 598.161 279.184 600.013 281.034 600.013Z" fill="#3F3D56" fill-opacity="0.8"/>
<path d="M281.034 594.956C282.883 594.956 284.382 593.104 284.382 590.819C284.382 588.535 282.883 586.682 281.034 586.682C279.184 586.682 277.685 588.535 277.685 590.819C277.685 593.104 279.184 594.956 281.034 594.956Z" fill="#3F3D56" fill-opacity="0.8"/>
<path d="M281.034 589.899C282.883 589.899 284.382 588.047 284.382 585.762C284.382 583.477 282.883 581.625 281.034 581.625C279.184 581.625 277.685 583.477 277.685 585.762C277.685 588.047 279.184 589.899 281.034 589.899Z" fill="#3F3D56" fill-opacity="0.8"/>
<path d="M268.486 551.131C268.029 550.58 267.612 550 267.24 549.395L276.04 548.034L266.519 548.098C265.608 546.222 265.111 544.19 265.058 542.127C265.006 540.063 265.399 538.011 266.214 536.096L278.99 542.353L267.206 534.175C268.305 532.366 269.788 530.79 271.563 529.546C273.337 528.302 275.364 527.418 277.517 526.947C279.671 526.477 281.903 526.432 284.076 526.813C286.249 527.195 288.315 527.996 290.144 529.167C291.974 530.337 293.528 531.851 294.709 533.614C295.89 535.377 296.673 537.351 297.008 539.413C297.343 541.475 297.224 543.58 296.658 545.596C296.091 547.612 295.09 549.497 293.716 551.131C294.433 551.984 295.048 552.91 295.548 553.891L284.12 559.493L296.311 555.652C296.871 557.219 297.157 558.863 297.158 560.517C297.163 563.915 295.95 567.214 293.716 569.879C295.578 572.113 296.736 574.797 297.058 577.623C297.38 580.449 296.853 583.304 295.537 585.861C294.221 588.417 292.169 590.573 289.617 592.081C287.064 593.589 284.113 594.389 281.101 594.389C278.09 594.389 275.139 593.589 272.586 592.081C270.033 590.573 267.982 588.417 266.666 585.861C265.35 583.304 264.823 580.449 265.145 577.623C265.467 574.797 266.625 572.113 268.486 569.879C266.262 567.208 265.053 563.91 265.053 560.513C265.053 557.116 266.262 553.817 268.486 551.147V551.131Z" fill="#A02222" fill-opacity="0.8"/>
<path opacity="0.1" d="M297.158 560.501C297.163 563.899 295.95 567.198 293.716 569.863C295.578 572.097 296.736 574.781 297.058 577.607C297.38 580.433 296.853 583.288 295.537 585.845C294.221 588.401 292.169 590.557 289.617 592.065C287.064 593.573 284.113 594.373 281.101 594.373C278.09 594.373 275.139 593.573 272.586 592.065C270.033 590.557 267.982 588.401 266.666 585.845C265.35 583.288 264.823 580.433 265.145 577.607C265.467 574.781 266.625 572.097 268.486 569.863C266.333 567.286 297.158 558.797 297.158 560.501Z" fill="black" fill-opacity="0.5"/>
<path d="M66.1619 579.833C76.8514 579.833 85.5169 578.26 85.5169 576.32C85.5169 574.38 76.8514 572.807 66.1619 572.807C55.4724 572.807 46.8069 574.38 46.8069 576.32C46.8069 578.26 55.4724 579.833 66.1619 579.833Z" fill="#A02222" fill-opacity="0.8"/>
<path d="M66.4924 577.616C67.7379 577.616 68.7475 576.37 68.7475 574.832C68.7475 573.294 67.7379 572.047 66.4924 572.047C65.247 572.047 64.2373 573.294 64.2373 574.832C64.2373 576.37 65.247 577.616 66.4924 577.616Z" fill="#3F3D56" fill-opacity="0.8"/>
<path d="M66.4924 574.216C67.7379 574.216 68.7475 572.969 68.7475 571.431C68.7475 569.893 67.7379 568.647 66.4924 568.647C65.247 568.647 64.2373 569.893 64.2373 571.431C64.2373 572.969 65.247 574.216 66.4924 574.216Z" fill="#3F3D56" fill-opacity="0.8"/>
<path d="M66.4924 570.807C67.7379 570.807 68.7475 569.56 68.7475 568.022C68.7475 566.485 67.7379 565.238 66.4924 565.238C65.247 565.238 64.2373 566.485 64.2373 568.022C64.2373 569.56 65.247 570.807 66.4924 570.807Z" fill="#3F3D56" fill-opacity="0.8"/>
<path d="M66.4924 567.406C67.7379 567.406 68.7475 566.16 68.7475 564.622C68.7475 563.084 67.7379 561.837 66.4924 561.837C65.247 561.837 64.2373 563.084 64.2373 564.622C64.2373 566.16 65.247 567.406 66.4924 567.406Z" fill="#3F3D56" fill-opacity="0.8"/>
<path d="M66.4924 564.006C67.7379 564.006 68.7475 562.759 68.7475 561.221C68.7475 559.683 67.7379 558.437 66.4924 558.437C65.247 558.437 64.2373 559.683 64.2373 561.221C64.2373 562.759 65.247 564.006 66.4924 564.006Z" fill="#3F3D56" fill-opacity="0.8"/>
<path d="M66.4924 560.605C67.7379 560.605 68.7475 559.358 68.7475 557.82C68.7475 556.282 67.7379 555.036 66.4924 555.036C65.247 555.036 64.2373 556.282 64.2373 557.82C64.2373 559.358 65.247 560.605 66.4924 560.605Z" fill="#3F3D56" fill-opacity="0.8"/>
<path d="M66.4924 557.204C67.7379 557.204 68.7475 555.957 68.7475 554.42C68.7475 552.882 67.7379 551.635 66.4924 551.635C65.247 551.635 64.2373 552.882 64.2373 554.42C64.2373 555.957 65.247 557.204 66.4924 557.204Z" fill="#3F3D56" fill-opacity="0.8"/>
<path d="M58.057 531.135C57.7416 530.767 57.4581 530.377 57.2092 529.967L63.1437 529.054H56.7429C56.127 527.795 55.7904 526.429 55.754 525.042C55.7175 523.655 55.9819 522.276 56.5309 520.989L65.119 525.246L57.1922 519.748C57.9275 518.525 58.9233 517.459 60.1167 516.617C61.3101 515.775 62.6753 515.175 64.1263 514.856C65.5774 514.536 67.0828 514.504 68.5479 514.76C70.0129 515.017 71.4058 515.557 72.6387 516.346C73.8717 517.136 74.9181 518.158 75.7119 519.348C76.5058 520.538 77.0299 521.871 77.2513 523.262C77.4728 524.652 77.3866 526.071 76.9985 527.429C76.6103 528.787 75.9284 530.054 74.9958 531.151C75.4741 531.727 75.8862 532.349 76.225 533.007L68.561 536.76L76.7507 534.167C77.1306 535.218 77.3225 536.322 77.3187 537.432C77.3217 539.716 76.5094 541.935 75.0127 543.729C76.2696 545.232 77.0526 547.039 77.2722 548.942C77.4918 550.845 77.139 552.769 76.2543 554.492C75.3696 556.214 73.9888 557.667 72.2698 558.684C70.5509 559.701 68.5634 560.24 66.5348 560.24C64.5063 560.24 62.5188 559.701 60.7998 558.684C59.0809 557.667 57.7 556.214 56.8153 554.492C55.9306 552.769 55.5779 550.845 55.7975 548.942C56.0171 547.039 56.8001 545.232 58.057 543.729C56.558 541.935 55.7428 539.717 55.7428 537.432C55.7428 535.147 56.558 532.929 58.057 531.135V531.135Z" fill="#A02222" fill-opacity="0.8"/>
<path opacity="0.1" d="M77.3272 537.432C77.3302 539.716 76.5179 541.934 75.0213 543.729C76.2781 545.232 77.0611 547.039 77.2807 548.942C77.5003 550.845 77.1476 552.768 76.2629 554.491C75.3782 556.214 73.9973 557.667 72.2784 558.684C70.5594 559.7 68.5719 560.24 66.5434 560.24C64.5149 560.24 62.5273 559.7 60.8084 558.684C59.0895 557.667 57.7086 556.214 56.8239 554.491C55.9392 552.768 55.5864 550.845 55.806 548.942C56.0256 547.039 56.8087 545.232 58.0655 543.729C56.6073 542.001 77.3272 536.288 77.3272 537.432Z" fill="black" fill-opacity="0.5"/>
<defs>
<linearGradient id="paint0_linear" x1="33033.8" y1="211766" x2="73046" y2="211766" gradientUnits="userSpaceOnUse">
<stop stop-color="#808080" stop-opacity="0.25"/>
<stop offset="0.54" stop-color="#808080" stop-opacity="0.12"/>
<stop offset="1" stop-color="#808080" stop-opacity="0.1"/>
</linearGradient>
</defs>
</svg>
